<?xml version="1.0" standalone="no"?>
<!DOCTYPE svg PUBLIC "-//W3C//DTD SVG 20010904//EN"
 "http://www.w3.org/TR/2001/REC-SVG-20010904/DTD/svg10.dtd">
<svg version="1.0" xmlns="http://www.w3.org/2000/svg"
 width="50.000000pt" height="50.000000pt" viewBox="0 0 50.000000 50.000000"
 preserveAspectRatio="xMidYMid meet">

<g transform="translate(0.000000,50.000000) scale(0.100000,-0.100000)"
fill="#000000" stroke="none">
<path d="M150 385 c0 -83 1 -85 20 -75 14 8 26 8 40 0 19 -10 20 -8 20 75 l0
85 -40 0 -40 0 0 -85z"/>
<path d="M70 420 c-18 -18 -20 -33 -20 -145 0 -112 2 -127 20 -145 11 -11 27
-20 35 -20 11 0 15 -11 15 -41 l0 -40 48 40 48 41 102 0 c141 0 142 1 142 165
0 161 -3 165 -125 165 l-85 0 0 -83 c0 -78 -2 -85 -30 -117 l-30 -35 -30 35
c-28 32 -30 39 -30 117 0 76 -2 83 -20 83 -11 0 -29 -9 -40 -20z m370 -243 c0
-40 -18 -47 -115 -47 l-90 0 -23 35 -22 35 125 0 c124 0 125 0 125 -23z"/>
<path d="M171 291 c-19 -12 -6 -41 18 -41 23 0 37 30 19 42 -16 10 -20 10 -37
-1z"/>
</g>
</svg>
