<svg xmlns="http://www.w3.org/2000/svg" shape-rendering="geometricPrecision" text-rendering="geometricPrecision" image-rendering="optimizeQuality" fill-rule="evenodd" clip-rule="evenodd" viewBox="0 0 512 401.367"><path d="M72.841 0h366.325c4.812 0 8.748 3.939 8.748 8.749v239.007c0 4.811-3.938 8.749-8.748 8.749H72.841c-4.811 0-8.749-3.936-8.749-8.749V8.749C64.092 3.937 68.028 0 72.841 0z"/><path fill="#6CC0EF" d="M74.774 12.465h362.457v231.576H74.774z"/><path fill="#7BC6F1" d="M78.423 12.466h358.809V240.39C297.831 230.88 182.417 131.919 78.423 12.466z"/><path fill="gray" d="M2.022 388.238l509.172.513c2.108 6.655-5.17 12.909-10.572 12.605H12.92c-6.914.243-12.722-6.163-10.898-13.118z"/><path fill="#CBCBCB" d="M511.627 384.337l-64.32-127.774-383.039-.05L.339 383.824c-1.824 6.955 3.984 13.361 10.898 13.118h489.818c5.402.304 12.68-5.951 10.572-12.605z"/><path fill="#FDFDFD" d="M81.676 271.13h348.937c4.279 0 5.928 3.928 7.78 7.782l21.475 44.744c1.849 3.851-3.51 7.783-7.782 7.783H59.926c-4.271 0-9.657-3.932-7.783-7.783l21.754-44.744c1.872-3.851 3.501-7.782 7.779-7.782z"/><path fill="#A5A5A5" d="M199.64 340.192h112.722c4.489 0 7.51 3.722 8.158 8.156l4.712 32.303c.649 4.434-3.675 8.158-8.152 8.158H194.925c-4.475 0-8.8-3.716-8.152-8.158l4.712-32.303c.648-4.44 3.669-8.156 8.155-8.156zm116.505-24.474c1.219 0 1.936 1.016 2.165 2.191l.778 4.022c.227 1.173-1.051 2.188-2.259 2.188H162.445c-1.219 0-1.898-.982-1.509-2.188l1.296-4.022c.389-1.206 1.7-2.191 2.919-2.191h150.994zm-35.477-12.097h-19.825c-1.217 0-2.169.987-2.113 2.187l.184 4.026c.056 1.203 1.096 2.188 2.315 2.188h19.826a2.089 2.089 0 002.11-2.188l-.185-4.026c-.052-1.202-1.101-2.187-2.312-2.187zm-1.68-12.694h-18.145c-1.22 0-2.169.985-2.113 2.188l.184 4.025c.056 1.206 1.096 2.188 2.315 2.188h18.145c1.217 0 2.166-.982 2.111-2.188l-.185-4.025c-.055-1.203-1.095-2.188-2.312-2.188zm67.86 24.791h-18.145c-1.217 0-1.895.985-1.507 2.191l1.297 4.022c.389 1.206 1.7 2.188 2.919 2.188h18.142c1.22 0 1.898-.982 1.51-2.188l-1.297-4.022c-.389-1.206-1.7-2.191-2.919-2.191zm30.673 0h-18.142c-1.219 0-1.898.985-1.509 2.191l1.296 4.022c.389 1.206 1.7 2.188 2.919 2.188h18.145c1.217 0 1.896-.982 1.507-2.188l-1.297-4.022c-.386-1.206-1.699-2.191-2.919-2.191zm33.076 0h-18.142c-1.219 0-1.898.985-1.509 2.191l1.296 4.022c.39 1.206 1.7 2.188 2.919 2.188h18.146c1.216 0 1.895-.982 1.506-2.188l-1.297-4.022c-.389-1.206-1.699-2.191-2.919-2.191zm30.618 0h-18.142c-1.219 0-1.898.985-1.509 2.191l1.297 4.022c.388 1.206 1.699 2.188 2.918 2.188h18.145c1.217 0 1.896-.982 1.507-2.188l-1.297-4.022c-.386-1.206-1.699-2.191-2.919-2.191zm-128.56-12.591h-20.132c-1.211 0-2.044.987-1.837 2.188l.692 4.022c.207 1.2 1.371 2.191 2.588 2.191h20.131c1.22 0 2.042-.985 1.838-2.191l-.69-4.022c-.204-1.206-1.382-2.188-2.59-2.188zm31.12 0h-18.146c-1.216 0-1.895.982-1.506 2.188l1.297 4.022c.386 1.206 1.699 2.191 2.919 2.191h18.142c1.219 0 1.898-.985 1.509-2.191l-1.296-4.022c-.389-1.206-1.7-2.188-2.919-2.188zm30.722 0h-18.145c-1.219 0-1.898.982-1.509 2.188l1.297 4.022c.389 1.206 1.702 2.191 2.919 2.191h18.145c1.217 0 1.895-.985 1.509-2.191l-1.299-4.022c-.387-1.206-1.7-2.188-2.917-2.188zm30.891 0h-18.144c-1.22 0-1.898.982-1.51 2.188l1.297 4.022c.389 1.206 1.702 2.191 2.919 2.191h18.145c1.217 0 1.895-.985 1.509-2.191l-1.299-4.022c-.387-1.206-1.7-2.188-2.917-2.188zm29.987 0H417.23c-1.22 0-1.896.982-1.509 2.188l1.296 4.022c.389 1.206 1.702 2.191 2.919 2.191h18.145c1.22 0 1.896-.985 1.509-2.191l-1.296-4.022c-.389-1.206-1.703-2.188-2.919-2.188zm-125.631-12.2h-18.948c-1.211 0-2.044.99-1.837 2.188l.692 4.025c.207 1.2 1.371 2.188 2.588 2.188h18.948c1.219 0 2.041-.982 1.837-2.188l-.689-4.025c-.205-1.203-1.383-2.188-2.591-2.188zm29.843 0h-18.145c-1.217 0-1.896.985-1.507 2.188l1.297 4.025c.389 1.206 1.699 2.188 2.919 2.188h18.142c1.22 0 1.898-.982 1.509-2.188l-1.297-4.025c-.388-1.203-1.699-2.188-2.918-2.188zm30.435 0h-18.144c-1.217 0-1.896.985-1.507 2.188l1.297 4.025c.386 1.206 1.699 2.188 2.916 2.188h18.145c1.219 0 1.898-.982 1.509-2.188l-1.297-4.025c-.388-1.203-1.699-2.188-2.919-2.188zm30.489 0h-18.143c-1.219 0-1.898.985-1.508 2.188l1.296 4.025c.389 1.206 1.7 2.188 2.919 2.188h18.145c1.217 0 1.896-.982 1.506-2.188l-1.296-4.025c-.386-1.203-1.7-2.188-2.919-2.188zm29.362 0h-18.144c-1.22 0-1.896.985-1.51 2.188l1.297 4.025c.389 1.206 1.702 2.188 2.919 2.188h18.145c1.219 0 1.895-.982 1.509-2.188l-1.297-4.025c-.388-1.203-1.702-2.188-2.919-2.188zm-123.227-12.478h-18.145c-1.217 0-2.045.985-1.838 2.188l.693 4.025c.207 1.205 1.371 2.187 2.588 2.187h18.145c1.219 0 2.044-.982 1.837-2.187l-.69-4.025c-.207-1.203-1.371-2.188-2.59-2.188zm29.288 0h-18.143c-1.219 0-1.898.985-1.508 2.188l1.296 4.025c.389 1.205 1.7 2.187 2.919 2.187h18.145c1.217 0 1.896-.982 1.506-2.187l-1.296-4.025c-.386-1.203-1.7-2.188-2.919-2.188zm29.815 0h-18.145c-1.22 0-1.898.985-1.509 2.188l1.297 4.025c.389 1.205 1.702 2.187 2.918 2.187h18.145c1.217 0 1.896-.982 1.51-2.187l-1.3-4.025c-.386-1.203-1.699-2.188-2.916-2.188zm29.589 0h-18.145c-1.22 0-1.898.985-1.509 2.188l1.297 4.025c.389 1.205 1.702 2.187 2.918 2.187h18.145c1.217 0 1.896-.982 1.51-2.187l-1.3-4.025c-.386-1.203-1.699-2.188-2.916-2.188zm28.391 0h-18.144c-1.22 0-1.896.985-1.51 2.188l1.297 4.025c.389 1.205 1.702 2.187 2.919 2.187h18.145c1.219 0 1.895-.982 1.509-2.187l-1.297-4.025c-.389-1.203-1.702-2.188-2.919-2.188zm-144.741 0h-18.145c-1.22 0-2.169.985-2.113 2.188l.184 4.025c.056 1.205 1.096 2.187 2.315 2.187h18.145c1.217 0 2.166-.982 2.111-2.187l-.185-4.025c-.055-1.203-1.095-2.188-2.312-2.188zm-144.51 37.269h18.143c1.219 0 1.898.985 1.509 2.191l-1.297 4.022c-.389 1.206-1.7 2.188-2.919 2.188h-18.145c-1.217 0-1.895-.982-1.506-2.188l1.297-4.022c.386-1.206 1.699-2.191 2.918-2.191zm-33.076 0h18.142c1.22 0 1.898.985 1.51 2.191l-1.297 4.022c-.389 1.206-1.699 2.188-2.919 2.188H98.693c-1.217 0-1.895-.982-1.507-2.188l1.297-4.022c.389-1.206 1.7-2.191 2.919-2.191zm-30.618 0h18.143c1.219 0 1.898.985 1.509 2.191l-1.297 4.022c-.389 1.206-1.7 2.188-2.919 2.188H68.075c-1.217 0-1.896-.982-1.506-2.188l1.296-4.022c.386-1.206 1.7-2.191 2.919-2.191zm160.307-12.591h20.217c1.217 0 2.114.985 1.998 2.188l-.398 4.022c-.115 1.203-1.213 2.191-2.43 2.191h-20.217c-1.214 0-2.116-.985-1.998-2.191l.398-4.022c.118-1.206 1.211-2.188 2.43-2.188zm-31.746 0h18.145c1.217 0 2.044.982 1.837 2.188l-.692 4.022c-.207 1.206-1.371 2.191-2.588 2.191h-18.145c-1.219 0-2.044-.985-1.837-2.191l.689-4.022c.207-1.206 1.371-2.188 2.591-2.188zm-31.12 0h18.145c1.216 0 1.895.982 1.506 2.188l-1.296 4.022c-.387 1.206-1.7 2.191-2.919 2.191h-18.143c-1.219 0-1.898-.985-1.509-2.191l1.297-4.022c.389-1.206 1.699-2.188 2.919-2.188zm-30.723 0h18.145c1.22 0 1.898.982 1.509 2.188l-1.297 4.022c-.389 1.206-1.702 2.191-2.918 2.191h-18.145c-1.217 0-1.896-.985-1.51-2.191l1.3-4.022c.386-1.206 1.7-2.188 2.916-2.188zm-30.891 0h18.145c1.219 0 1.898.982 1.509 2.188l-1.297 4.022c-.388 1.206-1.702 2.191-2.919 2.191h-18.144c-1.217 0-1.896-.985-1.51-2.191l1.3-4.022c.386-1.206 1.699-2.188 2.916-2.188zm-29.986 0H94.77c1.219 0 1.895.982 1.509 2.188l-1.297 4.022c-.389 1.206-1.702 2.191-2.919 2.191H73.918c-1.219 0-1.895-.985-1.509-2.191l1.297-4.022c.389-1.206 1.702-2.188 2.919-2.188zm155.553-12.2h19.13c1.22 0 2.114.988 1.998 2.188l-.398 4.025c-.115 1.203-1.213 2.188-2.427 2.188h-19.133c-1.217 0-2.116-.982-1.998-2.188l.398-4.025c.118-1.203 1.211-2.188 2.43-2.188zm-29.922 0H220.4c1.217 0 2.045.985 1.838 2.188l-.692 4.025c-.207 1.206-1.372 2.188-2.588 2.188h-18.145c-1.22 0-2.045-.982-1.838-2.188l.69-4.025c.207-1.203 1.371-2.188 2.591-2.188zm-29.843 0h18.145c1.217 0 1.895.985 1.506 2.188l-1.296 4.025c-.389 1.206-1.7 2.188-2.919 2.188h-18.142c-1.22 0-1.899-.982-1.51-2.188l1.297-4.025c.389-1.203 1.699-2.188 2.919-2.188zm-30.436 0h18.145c1.217 0 1.895.985 1.507 2.188l-1.297 4.025c-.387 1.206-1.7 2.188-2.917 2.188h-18.144c-1.22 0-1.898-.982-1.51-2.188l1.297-4.025c.389-1.203 1.699-2.188 2.919-2.188zm-30.488 0h18.142c1.22 0 1.898.985 1.509 2.188l-1.297 4.025c-.389 1.206-1.699 2.188-2.919 2.188h-18.145c-1.216 0-1.895-.982-1.506-2.188l1.297-4.025c.386-1.203 1.699-2.188 2.919-2.188zm-29.363 0h18.145c1.22 0 1.895.985 1.509 2.188l-1.297 4.025c-.389 1.206-1.702 2.188-2.919 2.188H79.42c-1.22 0-1.896-.982-1.51-2.188l1.297-4.025c.389-1.203 1.702-2.188 2.919-2.188zm151.037-12.478h18.145c1.22 0 2.116.985 1.998 2.188l-.398 4.025c-.118 1.205-1.211 2.187-2.43 2.187h-18.142c-1.22 0-2.117-.982-1.998-2.187l.397-4.025c.119-1.203 1.212-2.188 2.428-2.188zm-27.809 0h18.145c1.217 0 2.044.985 1.837 2.188l-.692 4.025c-.207 1.205-1.371 2.187-2.588 2.187h-18.145c-1.22 0-2.044-.982-1.838-2.187l.69-4.025c.207-1.203 1.371-2.188 2.591-2.188zm-29.288 0h18.142c1.219 0 1.898.985 1.509 2.188l-1.297 4.025c-.389 1.205-1.699 2.187-2.919 2.187h-18.145c-1.216 0-1.895-.982-1.506-2.187l1.297-4.025c.386-1.203 1.699-2.188 2.919-2.188zm-29.816 0h18.146c1.219 0 1.898.985 1.509 2.188l-1.297 4.025c-.389 1.205-1.702 2.187-2.919 2.187h-18.145c-1.217 0-1.895-.982-1.509-2.187l1.299-4.025c.387-1.203 1.7-2.188 2.916-2.188zm-29.589 0h18.146c1.219 0 1.898.985 1.509 2.188l-1.297 4.025c-.389 1.205-1.702 2.187-2.919 2.187h-18.145c-1.216 0-1.895-.982-1.509-2.187l1.299-4.025c.387-1.203 1.7-2.188 2.916-2.188zm-28.391 0h18.145c1.219 0 1.895.985 1.509 2.188l-1.297 4.025c-.388 1.205-1.702 2.187-2.919 2.187H85.564c-1.22 0-1.896-.982-1.51-2.187l1.297-4.025c.389-1.203 1.702-2.188 2.919-2.188z"/></svg>