<?xml version="1.0" standalone="no"?>
<!DOCTYPE svg PUBLIC "-//W3C//DTD SVG 20010904//EN"
 "http://www.w3.org/TR/2001/REC-SVG-20010904/DTD/svg10.dtd">
<svg version="1.0" xmlns="http://www.w3.org/2000/svg"
 width="376.000000pt" height="376.000000pt" viewBox="0 0 376.000000 376.000000"
 preserveAspectRatio="xMidYMid meet">

<g transform="translate(0.000000,376.000000) scale(0.100000,-0.100000)"
fill="#000000" stroke="none">
<path d="M1927 3715 c-4 -25 -16 -55 -27 -67 -11 -12 -20 -30 -20 -39 0 -10
-4 -21 -10 -24 -14 -9 -13 -68 2 -83 9 -9 9 -12 0 -12 -7 0 -12 -7 -12 -15 0
-17 25 -20 35 -5 4 6 14 9 22 8 9 -2 18 3 20 10 3 7 -4 12 -16 12 -12 0 -21 5
-21 10 0 6 6 10 14 10 19 0 29 17 20 32 -5 8 -10 6 -15 -8 -6 -15 -8 -12 -8
14 -1 17 2 32 7 32 8 0 34 48 53 100 7 19 16 39 21 45 15 17 8 25 -26 25 -32
0 -34 -2 -39 -45z"/>
<path d="M2040 3720 c0 -22 4 -40 9 -40 5 0 12 -13 16 -29 3 -16 14 -36 25
-46 10 -9 24 -30 30 -46 14 -33 9 -32 110 -29 125 3 218 -6 239 -23 7 -7 41
-12 75 -12 49 -1 66 -5 83 -22 11 -11 39 -24 61 -28 34 -5 43 -3 66 20 14 14
26 28 26 30 0 3 25 30 55 61 30 32 55 58 55 59 0 1 29 31 65 66 36 35 65 67
65 72 0 4 -220 7 -490 7 l-490 0 0 -40z m515 -62 c9 -26 -11 -83 -29 -86 -16
-3 -17 1 -11 40 4 23 9 46 12 51 7 11 23 8 28 -5z"/>
<path d="M2994 3668 c-43 -51 -90 -109 -102 -128 -13 -19 -37 -49 -53 -66 -16
-17 -27 -33 -24 -36 3 -2 -4 -13 -15 -23 -31 -28 -25 -52 16 -65 20 -7 50 -25
68 -40 18 -16 52 -36 77 -46 74 -30 139 -74 139 -95 0 -24 29 -37 40 -18 5 7
27 76 49 154 22 77 60 208 85 292 25 84 46 155 46 158 0 3 -55 5 -123 5 l-123
0 -80 -92z"/>
<path d="M3434 3713 c-9 -27 -29 -78 -44 -114 -15 -36 -31 -81 -35 -100 -4
-19 -13 -47 -21 -64 -20 -46 -45 -116 -56 -160 -5 -22 -14 -53 -20 -70 -5 -16
-15 -54 -23 -83 -13 -56 -14 -61 -16 -64 0 -2 -2 -25 -4 -52 -3 -53 6 -74 63
-142 19 -21 40 -55 47 -74 41 -111 58 -140 81 -140 16 0 39 -29 30 -37 -4 -4
-16 -2 -26 5 -11 7 -22 12 -25 12 -11 0 8 -74 32 -127 30 -69 32 -153 4 -153
-10 0 -22 8 -27 18 -5 11 -10 -15 -14 -72 -4 -57 -10 -91 -18 -94 -7 -2 -12
-12 -12 -23 0 -10 -4 -19 -10 -19 -5 0 -10 11 -10 24 0 14 -4 28 -10 31 -6 4
-10 -7 -10 -25 0 -18 6 -33 15 -36 12 -5 15 -24 15 -83 -1 -65 -3 -74 -14 -58
-7 9 -18 17 -24 17 -6 0 -8 15 -5 38 4 27 0 44 -14 61 -23 28 -49 21 -33 -9
20 -36 9 -100 -16 -100 -18 0 -18 -3 6 -50 26 -52 25 -57 -4 -23 -28 32 -42
26 -50 -23 -5 -27 -2 -33 29 -50 19 -10 35 -23 36 -29 0 -5 2 -29 4 -51 2 -23
6 -51 10 -63 4 -13 2 -21 -5 -21 -7 0 -9 -8 -5 -20 8 -25 -11 -27 -37 -3 -10
9 -18 11 -18 5 0 -6 6 -15 13 -19 35 -21 50 -62 44 -123 -4 -33 -11 -68 -16
-77 -14 -26 -31 -105 -25 -115 3 -5 23 -18 46 -29 38 -19 40 -22 33 -56 -3
-19 -11 -44 -18 -53 -10 -17 -13 -17 -59 6 -70 35 -80 32 -113 -31 -15 -31
-39 -65 -53 -75 -25 -20 -27 -29 -32 -110 -1 -25 -4 -36 -7 -25 -8 40 -25 75
-34 70 -4 -3 -1 -21 7 -40 19 -46 18 -55 -6 -55 -13 0 -20 7 -20 20 0 13 -7
20 -19 20 -11 0 -21 4 -23 9 -5 16 -40 17 -48 1 -8 -15 -37 -146 -42 -190 -2
-14 -6 -27 -9 -30 -19 -17 -49 -164 -49 -240 0 -98 22 -235 44 -279 l16 -30
-53 -43 c-28 -25 -77 -61 -107 -81 -30 -19 -75 -54 -99 -76 l-44 -41 617 0
616 0 0 163 0 163 -69 22 c-38 13 -72 30 -75 38 -5 12 -2 15 10 10 8 -3 22 -6
30 -6 8 0 13 -5 11 -11 -1 -6 16 -12 37 -14 22 -3 43 -10 48 -17 4 -8 8 10 8
42 0 51 -2 57 -30 73 -16 10 -30 23 -30 28 0 7 12 8 30 4 l30 -7 0 1636 0
1636 -154 0 -154 0 -18 -47z m-55 -1814 c47 -34 41 -99 -8 -99 -52 0 -60 17
-49 95 8 53 13 65 19 48 4 -12 22 -32 38 -44z m-165 36 c-4 -8 -8 -15 -10 -15
-2 0 -4 7 -4 15 0 8 4 15 10 15 5 0 7 -7 4 -15z m390 -872 c56 -20 109 -43
119 -51 16 -14 16 -16 -4 -30 -23 -16 -33 -14 -136 21 -96 34 -108 41 -108 71
-1 34 8 33 129 -11z m-614 -147 c0 -27 -16 -44 -23 -24 -5 18 3 48 14 48 5 0
9 -11 9 -24z m-20 -82 c0 -8 -52 -24 -60 -19 -20 12 2 31 30 27 17 -2 30 -6
30 -8z m-50 -44 c0 -5 -2 -10 -4 -10 -3 0 -8 5 -11 10 -3 6 -1 10 4 10 6 0 11
-4 11 -10z m556 -345 c16 -8 44 -15 62 -15 17 0 32 -4 32 -10 0 -5 7 -10 15
-10 8 0 15 -4 15 -10 0 -5 -3 -10 -7 -10 -16 0 -153 56 -153 63 0 10 4 9 36
-8z m-526 -345 c0 -9 5 -21 11 -27 6 -6 9 -17 6 -25 -3 -9 -7 -7 -12 7 -5 11
-15 36 -23 55 -9 19 -18 40 -20 45 -3 6 5 -1 17 -14 11 -13 21 -31 21 -41z"/>
<path d="M2081 3584 c0 -11 3 -14 6 -6 3 7 2 16 -1 19 -3 4 -6 -2 -5 -13z"/>
<path d="M2013 3526 c-9 -11 -7 -14 13 -12 13 0 23 5 21 10 -5 16 -21 16 -34
2z"/>
<path d="M2120 3510 c0 -5 5 -10 10 -10 6 0 10 5 10 10 0 6 -4 10 -10 10 -5 0
-10 -4 -10 -10z"/>
<path d="M1497 3424 c-13 -13 -7 -57 10 -76 9 -11 11 -18 5 -18 -23 0 -12 -49
19 -79 17 -17 33 -31 35 -31 2 0 -2 16 -10 35 -19 44 -6 53 19 14 11 -16 28
-29 37 -29 9 0 24 -10 33 -22 14 -21 14 -24 -4 -32 -22 -10 -33 -50 -18 -65 8
-8 8 -11 0 -11 -6 0 -14 -15 -17 -33 -3 -19 -20 -55 -36 -81 -17 -25 -30 -55
-30 -66 0 -10 -5 -20 -11 -22 -6 -2 -17 -35 -25 -73 -11 -59 -11 -72 0 -80 12
-9 12 -19 2 -59 -7 -26 -17 -51 -23 -54 -6 -4 -12 -16 -14 -27 -3 -11 -12 -21
-21 -23 -13 -2 -17 6 -20 35 -4 47 -22 52 -72 18 -20 -14 -43 -25 -51 -25 -11
0 -13 -8 -9 -29 6 -27 3 -31 -42 -51 -27 -13 -67 -24 -89 -25 -22 -1 -42 -3
-44 -4 -2 0 16 -18 39 -38 32 -28 58 -41 104 -50 39 -8 64 -9 70 -3 6 6 36 10
69 10 l58 0 20 -45 c19 -43 39 -59 39 -32 0 13 69 81 76 75 2 -2 -5 -33 -14
-68 -14 -47 -24 -65 -41 -72 -12 -4 -19 -12 -16 -18 8 -13 45 -13 45 0 0 5 10
18 22 30 12 11 18 20 13 20 -4 0 -1 8 8 18 8 9 15 28 14 42 0 14 3 39 7 56 6
27 4 32 -11 30 -10 0 -21 -5 -25 -11 -4 -5 -8 0 -8 12 0 15 5 21 13 17 20 -7
16 67 -4 86 -9 8 -19 22 -23 30 -3 8 -4 4 -2 -9 5 -23 -13 -51 -32 -51 -14 0
-12 51 3 80 7 14 18 36 23 50 10 23 11 23 11 4 1 -12 7 -26 14 -32 16 -14 50
27 91 111 16 31 32 57 36 57 10 0 31 -50 25 -60 -3 -4 2 -21 10 -36 8 -16 15
-35 15 -41 0 -18 19 -16 26 2 4 9 18 14 41 13 42 -2 57 17 37 46 -18 26 -18
37 1 30 20 -8 20 18 -1 57 -8 17 -13 37 -10 44 3 8 -9 32 -26 56 -21 29 -28
49 -25 68 6 31 -18 81 -39 81 -13 0 -15 8 -9 49 6 45 4 50 -21 70 -14 11 -35
21 -45 21 -10 0 -24 9 -31 20 -7 11 -16 20 -20 20 -5 0 -16 8 -27 18 -10 9
-31 28 -48 42 -32 27 -52 58 -62 98 -4 13 -10 20 -14 16z m25 -126 c-7 -7 -12
-8 -12 -2 0 14 12 26 19 19 2 -3 -1 -11 -7 -17z m214 -224 c-4 -9 -1 -23 5
-30 9 -11 7 -15 -5 -20 -9 -3 -23 -3 -32 0 -14 5 -14 7 0 22 9 8 16 22 16 30
0 8 5 14 11 14 6 0 8 -7 5 -16z m-16 -73 c0 -13 -33 -75 -45 -83 -17 -13 -35
-9 -35 7 0 8 11 22 24 30 13 9 26 25 29 35 5 20 27 28 27 11z m150 -292 c0
-14 -17 -10 -23 5 -4 10 -1 13 9 9 7 -3 14 -9 14 -14z"/>
<path d="M1655 3377 c-5 -12 -14 -16 -26 -12 -28 9 -25 -38 4 -65 18 -18 30
-21 69 -16 32 5 59 2 84 -9 21 -8 46 -13 57 -9 18 6 18 8 -8 30 -16 13 -35 24
-43 24 -23 0 -102 40 -102 51 0 6 -4 8 -9 5 -5 -4 -11 0 -14 6 -3 9 -7 7 -12
-5z m40 -57 c3 -5 1 -10 -4 -10 -6 0 -11 5 -11 10 0 6 2 10 4 10 3 0 8 -4 11
-10z"/>
<path d="M1360 3330 c0 -5 -7 -7 -15 -4 -19 8 -19 0 0 -36 17 -32 63 -45 51
-14 -3 9 -6 27 -6 40 0 15 -6 24 -15 24 -8 0 -15 -4 -15 -10z"/>
<path d="M2230 3320 c0 -6 -12 -15 -26 -20 -25 -10 -25 -12 -11 -33 8 -12 20
-22 26 -21 6 1 20 2 31 3 10 0 25 11 31 23 10 18 8 24 -11 40 -25 20 -40 23
-40 8z"/>
<path d="M1730 3264 c0 -12 20 -41 20 -30 0 6 7 1 15 -10 8 -10 15 -16 15 -12
0 4 -11 19 -25 34 -14 15 -25 23 -25 18z"/>
<path d="M2400 3265 c0 -10 29 -24 34 -17 3 6 -3 12 -14 15 -11 3 -20 4 -20 2z"/>
<path d="M1840 3253 c0 -4 18 -24 40 -44 22 -21 40 -43 40 -49 0 -6 6 -18 13
-25 6 -8 28 -37 47 -64 19 -27 36 -48 38 -46 2 2 -5 17 -17 33 -12 17 -21 36
-21 43 0 7 -12 26 -27 42 -26 28 -27 29 -5 23 13 -5 22 -3 22 3 0 6 -7 11 -16
11 -8 0 -33 18 -55 40 -37 37 -59 50 -59 33z"/>
<path d="M1955 3250 c3 -5 10 -10 16 -10 5 0 9 5 9 10 0 6 -7 10 -16 10 -8 0
-12 -4 -9 -10z"/>
<path d="M2257 3224 c-3 -3 1 -16 9 -28 8 -13 12 -25 8 -28 -3 -3 9 -16 27
-28 l31 -23 -7 24 c-17 57 -51 99 -68 83z"/>
<path d="M2425 3206 c31 -26 45 -32 45 -18 0 5 -17 16 -37 26 l-38 17 30 -25z"/>
<path d="M2480 3201 c0 -11 39 -25 47 -18 3 3 2 10 -2 16 -8 13 -45 15 -45 2z"/>
<path d="M2555 3181 c-2 -5 27 -34 65 -65 39 -31 70 -53 70 -49 0 11 -53 77
-74 93 -29 22 -55 30 -61 21z"/>
<path d="M2750 3170 c0 -11 59 -44 67 -37 4 5 -50 47 -61 47 -3 0 -6 -4 -6
-10z"/>
<path d="M1828 3165 c-3 -4 -2 -23 3 -43 4 -20 6 -38 4 -40 -2 -2 10 -29 27
-61 32 -59 67 -154 68 -183 0 -9 6 -23 13 -30 7 -7 18 -22 25 -33 10 -17 11
-15 12 22 0 25 -8 56 -20 75 -21 35 -26 58 -11 58 5 0 16 -18 24 -39 15 -35
37 -63 37 -45 0 20 -26 93 -42 116 -10 14 -18 32 -18 40 -1 17 -28 53 -35 46
-3 -3 2 -19 12 -36 19 -33 13 -52 -11 -33 -19 16 -29 60 -17 75 7 9 7 16 0 23
-8 8 -8 13 0 17 6 4 11 2 11 -4 0 -6 4 -8 10 -5 6 3 0 16 -13 29 -28 30 -72
58 -79 51z"/>
<path d="M2080 3125 c0 -8 7 -32 16 -53 8 -20 15 -61 14 -89 -3 -88 -2 -106
10 -158 6 -27 13 -63 16 -80 l5 -30 -14 30 c-8 17 -22 57 -32 90 -17 54 -68
135 -85 135 -10 0 1 -52 16 -73 9 -14 10 -27 2 -49 -8 -21 -7 -50 1 -98 6 -38
11 -82 11 -99 0 -33 10 -44 34 -35 18 7 21 31 5 36 -7 2 -9 13 -4 28 l7 23 18
-24 c10 -13 16 -27 14 -31 -2 -3 0 -9 6 -13 5 -3 10 -15 10 -25 0 -22 22 -39
28 -22 2 6 10 8 17 6 14 -6 86 42 83 54 -1 8 10 40 22 63 18 35 33 260 19 297
-13 34 -32 28 -24 -9 5 -22 4 -29 -4 -25 -6 4 -11 17 -11 29 0 20 -18 59 -21
47 -6 -19 -5 -80 2 -80 15 0 22 -89 9 -105 -20 -25 -28 -18 -39 36 -11 51 -34
101 -58 127 -16 16 -17 26 -3 17 12 -8 13 6 1 37 -5 13 -23 31 -40 41 -27 16
-31 16 -31 2z m87 -237 c-3 -8 -6 -5 -6 6 -1 11 2 17 5 13 3 -3 4 -12 1 -19z
m103 -145 c0 -30 -14 -29 -28 2 -19 42 -16 58 8 38 11 -10 20 -28 20 -40z"/>
<path d="M2742 3058 c7 -13 18 -26 23 -30 6 -5 6 -11 -2 -16 -14 -9 90 -132
112 -132 7 0 15 -6 18 -12 3 -10 7 -10 17 -1 10 10 6 19 -24 49 -20 20 -34 39
-30 43 4 3 9 0 11 -6 5 -15 23 -18 23 -4 0 15 -31 21 -52 10 -13 -7 -18 -7
-14 -1 3 6 -4 19 -16 29 -13 10 -25 27 -26 38 -4 22 -30 55 -44 55 -4 0 -3
-10 4 -22z"/>
<path d="M2355 2960 c3 -5 8 -10 11 -10 2 0 4 5 4 10 0 6 -5 10 -11 10 -5 0
-7 -4 -4 -10z"/>
<path d="M2570 2946 c0 -8 15 -23 33 -35 17 -11 41 -28 53 -38 21 -19 60 -43
70 -43 3 0 2 10 -2 22 -7 22 -42 57 -58 58 -4 0 -21 11 -38 25 -33 28 -58 32
-58 11z"/>
<path d="M2460 2866 c0 -73 11 -85 27 -31 12 38 4 86 -15 93 -9 3 -12 -16 -12
-62z"/>
<path d="M2381 2872 c-1 -46 2 -53 17 -50 13 2 16 11 13 33 -1 17 -6 32 -11
35 -4 3 -10 12 -13 20 -3 8 -6 -9 -6 -38z"/>
<path d="M2930 2908 c0 -9 5 -20 10 -23 6 -4 8 -11 5 -16 -4 -5 -1 -9 5 -9 7
0 9 8 5 23 -10 30 -25 46 -25 25z"/>
<path d="M1875 2880 c4 -19 12 -39 18 -45 16 -13 15 -142 -1 -178 -6 -15 -26
-46 -44 -68 -27 -33 -30 -42 -18 -49 28 -18 39 -10 54 43 9 30 25 65 36 80 11
14 20 32 20 41 0 9 5 16 11 16 15 0 4 58 -15 79 -7 9 -16 29 -20 44 -4 16 -16
38 -27 50 l-21 22 7 -35z"/>
<path d="M3150 2870 c0 -11 7 -23 15 -26 10 -4 13 -14 9 -28 -3 -14 1 -27 10
-35 9 -7 13 -17 11 -22 -7 -10 15 -99 24 -99 4 0 12 5 19 12 9 9 12 8 12 -5 0
-25 32 -87 45 -87 35 0 45 52 20 100 -16 31 -15 33 20 32 13 -1 14 1 5 4 -8 3
-30 27 -48 54 -17 28 -37 50 -42 50 -6 0 -10 6 -10 14 0 19 -47 56 -71 56 -12
0 -19 -7 -19 -20z m140 -210 c0 -5 -5 -10 -11 -10 -5 0 -7 5 -4 10 3 6 8 10
11 10 2 0 4 -4 4 -10z"/>
<path d="M3064 2856 c-3 -8 0 -24 6 -37 9 -16 14 -19 20 -8 12 18 41 -6 33
-27 -5 -14 22 -43 41 -44 4 0 5 17 1 38 -7 43 -42 77 -62 60 -10 -8 -13 -5
-13 11 0 24 -18 28 -26 7z"/>
<path d="M2876 2822 c-4 -12 -11 -22 -16 -22 -14 0 1 -31 34 -72 31 -37 56
-49 56 -26 0 7 -12 25 -27 42 l-28 30 28 -17 c27 -18 37 -11 15 11 -9 9 -8 16
5 30 16 18 14 32 -5 32 -5 0 -8 -7 -6 -16 5 -28 -16 -26 -33 3 -16 26 -17 26
-23 5z"/>
<path d="M2440 2743 c0 -21 3 -24 9 -14 5 8 7 20 4 28 -8 21 -13 15 -13 -14z"/>
<path d="M2507 2754 c-10 -10 -9 -44 2 -44 13 0 23 32 13 42 -5 5 -11 5 -15 2z"/>
<path d="M2710 2755 c0 -5 5 -17 10 -25 5 -8 10 -10 10 -5 0 6 -5 17 -10 25
-5 8 -10 11 -10 5z"/>
<path d="M2850 2733 c0 -5 9 -21 20 -38 22 -33 27 -21 8 20 -10 23 -28 34 -28
18z"/>
<path d="M2680 2704 c6 -14 17 -36 26 -47 15 -21 15 -21 8 8 -9 39 -22 65 -34
65 -6 0 -6 -10 0 -26z"/>
<path d="M1310 2689 c0 -5 5 -7 10 -4 6 3 10 8 10 11 0 2 -4 4 -10 4 -5 0 -10
-5 -10 -11z"/>
<path d="M1205 2660 c-16 -4 -55 -8 -85 -9 -36 -1 -50 -5 -40 -10 20 -12 157
2 172 17 14 14 2 14 -47 2z"/>
<path d="M2860 2600 c0 -55 3 -64 31 -93 l31 -32 -7 35 c-4 19 -8 42 -10 50
-1 8 -5 22 -8 30 -4 8 -8 26 -10 39 -2 14 -9 27 -15 29 -8 2 -12 -16 -12 -58z"/>
<path d="M3235 2630 c3 -5 8 -10 11 -10 2 0 4 5 4 10 0 6 -5 10 -11 10 -5 0
-7 -4 -4 -10z"/>
<path d="M2920 2621 c0 -5 5 -13 10 -16 6 -3 10 -2 10 4 0 5 -4 13 -10 16 -5
3 -10 2 -10 -4z"/>
<path d="M2261 2534 c0 -11 3 -14 6 -6 3 7 2 16 -1 19 -3 4 -6 -2 -5 -13z"/>
<path d="M1018 2065 c-3 -3 -31 -6 -62 -6 -31 0 -56 -3 -57 -7 -5 -44 -3 -59
12 -90 10 -21 22 -85 28 -148 14 -136 31 -197 72 -253 37 -51 88 -76 202 -98
106 -20 198 -13 265 21 51 26 55 32 108 151 9 22 26 49 36 61 10 11 31 45 46
75 19 38 34 55 50 57 39 6 49 -13 55 -102 9 -125 52 -230 121 -293 105 -96
335 -138 498 -91 87 25 149 115 193 282 30 113 39 130 80 156 29 18 36 18 120
5 50 -8 120 -15 157 -15 75 0 101 -17 113 -71 7 -33 29 -37 63 -13 23 16 30
44 11 44 -11 0 -69 60 -69 71 0 19 -121 49 -355 89 -38 7 -104 20 -145 30 -41
11 -140 30 -220 44 -251 43 -439 32 -490 -29 -11 -13 -26 -15 -79 -10 -98 10
-127 21 -151 62 -17 29 -23 33 -35 23 -12 -10 -35 -7 -115 15 -56 15 -104 25
-107 21 -3 -3 -11 -2 -17 3 -13 10 -318 26 -328 16z m-60 -41 c27 -18 29 -34
4 -34 -21 0 -42 18 -42 37 0 17 11 16 38 -3z m317 6 c123 -18 265 -81 290
-130 8 -16 15 -40 15 -55 0 -22 -4 -25 -39 -25 -22 0 -44 6 -51 15 -7 8 -30
20 -51 27 -33 9 -42 9 -58 -6 -15 -13 -24 -14 -46 -6 -35 13 -57 -3 -53 -39 3
-22 19 -34 106 -77 57 -28 113 -60 124 -71 18 -18 18 -25 8 -64 -22 -82 -90
-119 -219 -119 -98 0 -188 23 -224 58 -85 81 -121 247 -82 380 l16 52 91 -7
c68 -5 89 -3 84 5 -4 7 -16 12 -26 12 -23 0 -54 30 -43 40 21 20 67 23 158 10z
m1015 -115 c104 -14 167 -31 210 -57 32 -19 60 -81 60 -132 0 -68 -25 -185
-54 -248 -48 -106 -109 -134 -272 -125 -128 7 -246 49 -305 108 l-39 39 1 112
c1 85 -3 123 -16 155 -31 77 1 127 97 148 83 18 189 18 318 0z m348 -54 c21
-13 10 -46 -16 -49 -23 -4 -52 13 -52 30 0 5 10 13 23 18 28 11 29 11 45 1z
m-1194 -77 c6 -27 14 -38 38 -48 17 -7 26 -16 20 -20 -9 -6 -35 3 -110 37 -12
6 -18 13 -14 16 5 3 12 16 16 29 12 36 43 28 50 -14z"/>
<path d="M2055 1779 c-8 -12 23 -38 47 -39 28 0 29 17 3 34 -28 19 -41 20 -50
5z"/>
<path d="M1989 1756 c7 -9 20 -16 29 -16 12 0 12 -4 -4 -21 -19 -21 -18 -21 5
-40 13 -10 36 -19 52 -19 31 0 39 14 13 24 -10 4 -14 12 -10 23 9 21 -22 49
-65 58 -30 7 -32 6 -20 -9z m61 -56 c0 -5 -2 -10 -4 -10 -3 0 -8 5 -11 10 -3
6 -1 10 4 10 6 0 11 -4 11 -10z"/>
<path d="M2160 1701 c0 -25 44 -71 69 -71 57 0 66 26 20 64 -37 31 -89 36 -89
7z"/>
<path d="M2070 1626 c0 -20 19 -31 32 -18 7 7 3 14 -11 21 -17 10 -21 9 -21
-3z"/>
<path d="M3150 1859 c0 -5 5 -7 10 -4 6 3 10 8 10 11 0 2 -4 4 -10 4 -5 0 -10
-5 -10 -11z"/>
<path d="M3140 1770 c0 -5 5 -10 11 -10 5 0 7 5 4 10 -3 6 -8 10 -11 10 -2 0
-4 -4 -4 -10z"/>
<path d="M3167 1286 c-4 -9 2 -17 14 -21 27 -9 35 1 16 20 -19 19 -23 19 -30
1z"/>
<path d="M1765 1180 c-4 -6 13 -10 45 -10 32 0 49 4 45 10 -3 6 -24 10 -45 10
-21 0 -42 -4 -45 -10z"/>
<path d="M1565 1130 c-3 -5 6 -17 20 -26 20 -13 39 -15 86 -11 73 6 98 23 48
31 -75 11 -149 14 -154 6z"/>
<path d="M1514 1011 c6 -9 -10 -10 -68 -5 -67 6 -76 5 -70 -9 10 -27 74 -71
86 -59 13 13 38 2 69 -29 23 -23 49 -25 49 -3 0 14 8 16 53 10 28 -4 70 -15
92 -26 45 -20 178 -33 172 -15 -2 5 -21 13 -43 16 -21 3 -61 17 -89 31 -27 14
-67 28 -87 32 -20 4 -50 13 -65 21 -15 8 -35 15 -43 15 -9 0 -26 8 -39 17 -14
9 -21 11 -17 4z"/>
<path d="M1262 837 c-5 -6 -13 -23 -17 -37 -10 -33 -116 -259 -143 -305 -19
-32 -162 -335 -189 -400 -14 -33 -29 -64 -34 -70 -21 -21 -7 -27 49 -20 31 4
73 6 92 5 19 0 130 -3 245 -6 l210 -5 1 73 c1 57 8 91 34 158 18 47 37 88 42
91 5 3 -10 14 -33 24 -68 31 -142 142 -164 245 -4 19 -16 67 -26 105 -45 160
-48 166 -67 142z"/>
<path d="M1560 831 c0 -10 47 -21 54 -13 3 3 3 9 0 13 -7 12 -54 12 -54 0z"/>
<path d="M1620 306 c14 -8 34 -15 45 -16 31 0 4 19 -35 25 l-35 6 25 -15z"/>
<path d="M1703 293 c9 -2 23 -2 30 0 6 3 -1 5 -18 5 -16 0 -22 -2 -12 -5z"/>
</g>
</svg>
