<?xml version="1.0" standalone="no"?>
<!DOCTYPE svg PUBLIC "-//W3C//DTD SVG 20010904//EN"
 "http://www.w3.org/TR/2001/REC-SVG-20010904/DTD/svg10.dtd">
<svg version="1.0" xmlns="http://www.w3.org/2000/svg"
 width="963.000000pt" height="963.000000pt" viewBox="0 0 963.000000 963.000000"
 preserveAspectRatio="xMidYMid meet">

<g transform="translate(0.000000,963.000000) scale(0.100000,-0.100000)"
fill="#000000" stroke="none">
<path d="M0 6000 c0 -1996 3 -3630 6 -3630 3 0 35 29 71 65 36 37 86 83 111
103 25 20 69 60 98 87 124 119 153 145 163 145 6 0 11 4 11 9 0 13 77 61 99
61 26 0 89 -75 153 -184 29 -49 55 -94 57 -100 2 -6 10 -18 17 -26 12 -14 50
-80 120 -207 12 -23 53 -95 90 -160 69 -120 129 -233 192 -358 20 -38 38 -72
42 -75 3 -3 14 -25 25 -50 11 -25 31 -65 45 -90 15 -25 43 -80 64 -122 21 -43
41 -78 45 -78 4 0 18 24 30 53 43 97 106 218 109 208 2 -5 -4 -25 -12 -45 -8
-19 -18 -56 -21 -81 -4 -25 -11 -45 -16 -45 -5 0 -9 -15 -9 -32 -1 -18 -7 -50
-15 -72 -14 -39 -11 -66 7 -66 5 0 6 -6 1 -12 -4 -7 -10 -35 -14 -63 -4 -27
-14 -90 -23 -138 -9 -49 -14 -92 -11 -97 3 -5 1 -11 -5 -15 -5 -3 -10 -26 -10
-51 0 -25 -5 -55 -12 -67 -6 -12 -11 -39 -9 -60 1 -22 -3 -44 -8 -51 -12 -14
-21 -89 -26 -224 l-4 -93 37 7 c20 3 89 30 152 58 111 49 118 51 205 51 52 -1
113 -8 145 -17 30 -9 98 -28 150 -42 128 -34 148 -40 200 -64 193 -87 351
-133 388 -113 29 16 72 113 87 197 54 307 73 492 80 779 3 99 10 204 16 233
23 111 -11 311 -66 396 -8 12 -26 55 -39 96 -14 41 -35 100 -47 130 -12 30
-24 69 -26 85 -3 17 -9 35 -14 41 -5 6 -15 54 -23 107 -8 53 -17 101 -20 106
-4 5 -11 99 -16 210 -6 110 -13 207 -16 215 -5 13 -18 15 -73 10 -126 -11
-196 32 -326 199 -74 95 -107 172 -134 307 -12 58 -39 159 -60 225 -37 116
-79 362 -66 397 2 7 9 52 14 100 7 57 18 103 35 135 13 27 29 74 35 105 19
104 84 200 144 212 88 18 112 11 192 -53 69 -56 66 -54 106 -79 69 -42 99 -25
99 55 0 31 8 71 19 96 11 23 22 51 25 62 4 11 40 49 80 85 41 36 80 75 87 88
7 12 18 22 26 22 8 0 13 12 13 30 0 28 -3 30 -36 30 -20 0 -47 -8 -61 -19 -46
-37 -73 6 -36 58 22 33 75 142 70 147 -17 17 -97 -82 -97 -119 0 -10 -7 -17
-16 -17 -11 0 -14 -6 -9 -20 7 -23 -10 -28 -18 -6 -10 27 29 124 108 267 39
70 57 118 70 178 19 96 16 122 -10 66 -10 -22 -35 -67 -55 -101 -52 -86 -113
-216 -145 -309 -15 -44 -31 -84 -36 -90 -5 -5 -9 -16 -9 -25 0 -9 -7 -25 -15
-36 -13 -17 -14 -7 -14 96 1 63 0 150 0 193 -2 58 2 81 13 93 9 9 16 32 16 54
0 21 3 40 8 42 7 3 39 109 65 218 7 32 18 54 25 53 8 -2 11 10 10 35 0 21 5
48 11 61 7 13 16 44 20 70 3 25 11 45 16 44 14 -4 19 -83 6 -83 -6 0 -11 -13
-11 -30 0 -38 18 -39 25 -2 16 72 30 112 41 112 6 0 14 18 18 40 3 22 10 40
15 40 12 0 31 47 31 76 0 17 8 27 26 34 23 9 25 15 21 43 -3 17 -2 41 2 51 6
16 11 12 27 -27 10 -26 22 -47 27 -47 4 0 7 25 7 55 l0 55 34 0 c19 0 38 5 42
11 3 6 16 8 28 5 16 -4 29 4 56 36 32 36 38 40 57 29 17 -8 24 -8 29 1 5 7 3
8 -6 3 -9 -6 -10 0 -5 26 7 33 31 69 44 67 22 -2 31 6 42 40 13 40 48 91 63
91 6 1 20 11 33 23 15 14 34 21 53 20 18 -1 30 3 31 10 1 7 2 20 3 28 1 10 12
15 36 16 28 0 35 5 40 25 6 23 22 28 59 18 8 -2 20 6 26 18 7 13 15 20 18 17
4 -4 13 -2 20 5 8 6 35 14 61 17 31 5 53 14 65 29 12 17 24 22 43 18 22 -4 25
-1 24 19 -1 18 -7 23 -31 25 -62 4 -74 9 -95 36 -17 21 -28 27 -45 23 -14 -4
-28 0 -35 9 -15 18 -66 20 -77 2 -4 -7 -20 -17 -34 -24 -23 -10 -26 -9 -37 19
-9 25 -15 29 -43 26 -28 -3 -33 1 -41 27 -7 26 -4 33 21 55 25 21 30 35 35 90
8 81 23 127 41 134 9 3 15 18 15 35 0 16 5 33 10 36 16 10 3 23 -24 23 -21 0
-27 -8 -37 -48 -12 -48 -13 -48 -48 -43 -20 3 -46 15 -58 26 -17 15 -23 17
-23 6 -1 -8 -7 -2 -16 13 -16 30 -61 58 -81 51 -7 -3 -13 -20 -13 -38 0 -39
-12 -51 -30 -30 -18 22 -30 18 -30 -9 0 -15 7 -27 19 -31 18 -5 36 -44 25 -54
-9 -10 -77 0 -96 14 -11 7 -26 24 -33 38 -11 21 -10 27 3 41 14 13 14 20 4 36
-6 11 -12 34 -13 52 0 31 -1 30 -21 -19 -23 -58 -33 -60 -41 -11 -3 23 4 52
23 93 32 70 122 220 153 252 12 14 20 36 20 55 0 18 7 41 15 51 14 15 13 17
-1 17 -10 0 -17 7 -17 15 0 8 4 15 9 15 5 0 12 14 16 31 4 17 20 42 37 57 21
19 28 32 24 48 -5 17 2 26 29 43 20 11 40 32 45 46 6 15 17 25 29 25 25 0 38
20 20 31 -25 15 -59 10 -59 -8 0 -15 -2 -16 -10 -3 -8 13 -10 13 -10 1 0 -12
-3 -12 -12 -3 -9 9 -5 31 16 93 25 73 26 83 12 91 -24 14 -20 23 23 51 44 29
147 122 180 163 10 11 16 13 19 6 5 -16 59 25 83 65 l20 32 -21 78 c-12 43
-43 143 -70 223 -105 314 -104 310 -105 470 0 146 7 184 59 303 8 16 -78 17
-1733 17 l-1741 0 0 -3630z m3020 970 c0 -5 -4 -10 -10 -10 -5 0 -10 5 -10 10
0 6 5 10 10 10 6 0 10 -4 10 -10z m60 -132 c25 -27 25 -33 0 -58 -37 -37 -57
-17 -46 45 8 41 17 43 46 13z m280 -23 c6 -8 10 -22 8 -32 -3 -14 -8 -12 -26
15 -18 24 -20 32 -9 32 8 0 20 -7 27 -15z m77 -151 c-3 -3 -12 -4 -19 -1 -8 3
-5 6 6 6 11 1 17 -2 13 -5z m-188 -18 c13 -15 5 -66 -10 -66 -5 0 -9 11 -9 24
0 13 -3 31 -6 40 -8 20 9 21 25 2z m41 -26 c0 -5 -4 -10 -10 -10 -5 0 -10 5
-10 10 0 6 5 10 10 10 6 0 10 -4 10 -10z m74 -19 c3 -4 3 -11 0 -14 -8 -8 -34
3 -34 14 0 11 27 12 34 0z m-198 -79 c14 -9 25 -52 14 -52 -5 0 -12 9 -15 20
-3 11 -11 20 -16 20 -5 0 -9 5 -9 10 0 12 11 13 26 2z m-425 -485 c-6 -40 -15
-66 -22 -61 -5 3 -12 -13 -15 -36 -4 -22 -11 -43 -15 -46 -12 -7 -38 54 -32
76 10 37 88 100 84 67z m-199 -1190 c-6 -7 -13 -30 -17 -52 -11 -59 -31 -88
-54 -75 -38 20 -30 120 9 120 10 0 29 15 42 33 22 31 23 31 26 9 2 -13 -1 -28
-6 -35z m-1264 -1458 c40 -10 88 -19 107 -19 19 0 35 -4 35 -10 0 -12 -10 -12
-107 0 -128 17 -193 33 -193 48 0 16 46 11 158 -19z m252 -49 c25 -4 56 -12
70 -18 l25 -11 -29 0 c-16 -1 -45 3 -65 9 -20 5 -49 12 -64 15 -16 3 -25 10
-21 16 3 6 13 7 23 3 9 -4 36 -10 61 -14z m-299 -77 c60 -34 69 -40 88 -57 10
-9 21 -33 23 -52 3 -28 1 -34 -14 -34 -22 0 -22 -7 -3 -53 17 -41 20 -123 5
-132 -12 -7 -44 25 -66 67 -58 114 -153 227 -203 243 -54 17 7 45 87 39 29 -2
66 -12 83 -21z m-371 -189 c0 -22 -2 -25 -15 -14 -8 7 -15 19 -15 26 0 8 7 14
15 14 10 0 15 -10 15 -26z"/>
<path d="M5428 8755 c-8 -9 39 -95 70 -128 22 -23 24 -29 12 -37 -11 -7 -12
-12 -3 -21 8 -8 14 -6 22 10 7 12 17 21 23 21 6 0 20 8 30 17 23 20 30 13 52
-51 18 -56 15 -66 -16 -47 -20 13 -21 12 -15 -31 3 -23 12 -63 19 -88 12 -39
12 -53 -3 -110 -16 -63 -17 -64 -28 -37 -6 16 -11 39 -11 52 0 14 -9 39 -20
57 -11 18 -20 39 -20 46 0 16 -19 36 -42 45 -11 4 -18 17 -18 31 0 13 -12 38
-26 55 -26 31 -26 40 -2 73 9 12 9 22 1 40 -11 23 -11 23 -18 -9 -7 -29 -11
-33 -42 -33 -42 0 -50 -19 -26 -62 10 -18 19 -34 20 -36 0 -2 9 -5 20 -6 25
-4 28 -29 7 -61 -15 -23 -22 -26 -53 -20 -20 4 -42 12 -50 18 -12 10 -13 8 -7
-13 4 -14 10 -44 13 -68 3 -23 10 -45 14 -48 12 -7 11 -41 -1 -49 -5 -3 -18
11 -27 32 -10 21 -24 42 -30 46 -7 4 -13 24 -13 42 0 53 -58 100 -74 60 -3 -8
-3 -21 0 -29 7 -18 -34 -32 -49 -17 -17 17 -37 13 -37 -8 0 -26 -26 -47 -34
-26 -3 8 -14 15 -25 15 -22 0 -36 -26 -18 -34 7 -2 -1 -5 -18 -5 -24 -1 -27 2
-15 10 12 8 10 9 -9 4 -13 -4 -26 -3 -30 2 -8 13 -121 26 -121 14 0 -5 -8 -11
-17 -15 -10 -3 -26 -11 -36 -18 -14 -11 -19 -10 -26 1 -5 8 -7 20 -4 28 4 11
-1 12 -23 6 -16 -4 -45 -7 -64 -7 -19 1 -38 -3 -41 -9 -4 -6 -63 -11 -136 -12
-125 -1 -131 -2 -166 -29 -39 -30 -50 -54 -19 -41 9 4 52 10 95 13 80 5 97 -4
52 -28 -28 -15 -32 -28 -11 -36 20 -8 -2 -50 -34 -66 -35 -17 -100 -79 -94
-90 3 -4 17 -8 31 -8 34 0 19 -19 -39 -49 -24 -12 -54 -31 -68 -41 l-25 -20
50 -1 c98 -4 115 5 118 64 2 34 4 37 34 37 20 0 37 7 45 19 8 11 32 22 58 26
25 4 51 12 58 17 6 6 25 8 42 5 16 -4 32 -2 35 3 3 6 26 10 50 10 35 0 45 4
50 20 7 21 20 26 29 11 7 -10 80 -7 109 4 20 9 22 -3 2 -29 -8 -10 -29 -20
-46 -22 -41 -5 -63 -19 -138 -92 -34 -32 -78 -64 -99 -71 -20 -8 -43 -19 -51
-25 -18 -14 -72 -17 -87 -5 -20 16 -45 -18 -38 -49 7 -26 6 -27 -13 -9 -26 23
-66 23 -61 0 2 -10 13 -22 25 -28 11 -6 28 -16 36 -23 11 -10 17 -10 22 -1 6
8 10 8 16 -2 5 -8 2 -20 -7 -31 -14 -15 -14 -18 5 -35 12 -9 21 -24 21 -31 0
-8 6 -26 14 -40 19 -37 37 -92 41 -122 2 -14 12 -46 21 -72 10 -26 15 -50 12
-54 -12 -12 -38 5 -38 24 0 10 -9 27 -20 37 -12 11 -20 13 -20 6 0 -7 -3 -10
-7 -8 -5 3 -9 -24 -11 -60 -2 -56 0 -64 11 -54 23 18 39 -9 28 -45 -5 -16 -12
-55 -16 -86 -6 -53 -27 -90 -43 -74 -4 4 -9 33 -12 63 -3 31 -10 58 -16 60 -5
2 -16 -19 -23 -47 -7 -27 -17 -50 -22 -50 -5 0 -6 12 -2 28 13 46 6 174 -11
207 -9 17 -16 41 -16 54 0 59 -67 131 -121 131 -18 0 -19 3 -9 15 14 17 5 35
-18 35 -9 0 -26 7 -36 15 -11 8 -28 15 -38 15 -10 0 -18 4 -18 9 0 12 -98 12
-106 0 -3 -5 -21 -9 -41 -9 -22 0 -58 -12 -90 -30 -29 -17 -56 -30 -60 -29
-38 6 -77 -4 -99 -26 -14 -14 -31 -25 -39 -25 -15 0 -28 -16 -31 -38 -2 -8 -9
-21 -17 -30 -8 -10 -27 -44 -42 -77 -16 -33 -30 -62 -31 -64 -7 -9 -62 45 -59
57 3 7 0 22 -5 33 -7 13 -8 31 -1 54 12 43 -8 67 -40 47 -24 -16 -29 -15 -29
3 0 8 7 15 15 15 18 0 35 31 35 63 0 32 10 40 25 20 11 -15 15 -14 39 10 26
26 34 47 17 47 -6 0 -13 -4 -16 -10 -9 -15 -25 -12 -25 5 0 8 -7 15 -15 15 -8
0 -15 7 -15 15 0 8 -9 15 -20 15 -24 0 -24 3 -4 42 14 26 14 37 3 77 -6 25
-16 52 -22 59 -6 8 -6 12 2 12 6 0 11 5 11 10 0 6 -8 5 -20 -2 -11 -7 -20 -21
-20 -31 0 -9 -4 -25 -9 -35 -28 -54 -33 -74 -29 -104 6 -35 -7 -62 -53 -113
-21 -24 -28 -44 -33 -100 -4 -38 -13 -74 -20 -80 -24 -19 -37 -56 -31 -86 7
-31 15 -35 31 -19 13 13 71 -15 92 -42 7 -10 22 -18 34 -18 11 0 22 -8 25 -20
3 -11 10 -20 15 -20 5 0 12 9 15 20 4 15 14 20 38 20 19 0 41 3 50 6 11 5 16
2 14 -7 -6 -32 24 -197 42 -227 40 -69 83 -111 132 -128 26 -8 47 -19 47 -24
0 -4 9 -10 21 -13 15 -4 23 0 26 14 6 21 18 25 28 9 3 -5 1 -10 -4 -10 -21 0
-11 -22 22 -51 17 -16 35 -29 40 -29 16 0 6 -30 -10 -30 -15 0 -16 -2 -3 -10
12 -7 12 -11 -3 -28 -12 -13 -16 -28 -12 -45 7 -28 35 -45 35 -22 0 10 10 15
29 15 16 0 34 7 41 15 7 9 19 14 26 11 19 -7 26 8 18 39 -4 18 -13 25 -31 25
-13 0 -21 4 -18 10 13 22 43 8 95 -45 32 -34 59 -54 68 -50 7 3 18 5 23 5 5 0
9 9 9 20 0 11 -6 20 -13 20 -7 0 -34 23 -61 52 -42 45 -50 50 -67 40 -24 -15
-35 4 -25 43 6 22 11 24 45 21 22 -2 58 -14 80 -27 23 -12 44 -19 48 -16 12
13 -12 61 -36 74 -30 14 -47 41 -34 54 6 6 28 1 58 -12 38 -17 62 -20 117 -17
68 4 87 14 88 46 0 10 -8 12 -29 7 -22 -5 -30 -2 -35 12 -11 28 18 43 55 30
21 -9 32 -9 37 -1 4 6 17 16 30 23 20 11 22 10 22 -16 0 -33 -40 -123 -67
-151 -36 -38 -54 -63 -49 -70 3 -4 -11 -6 -30 -4 -21 3 -34 0 -34 -7 0 -6 7
-11 17 -11 15 0 15 -1 0 -18 -10 -10 -17 -26 -17 -34 0 -18 27 -32 35 -18 8
13 45 13 45 0 0 -5 16 -14 36 -19 28 -8 43 -7 65 4 20 11 35 12 54 5 39 -15
104 -9 115 9 8 14 11 14 24 -4 13 -17 18 -18 35 -7 19 11 24 8 52 -38 17 -27
35 -50 40 -50 5 0 9 -6 9 -14 0 -18 30 -30 43 -17 6 6 3 23 -10 48 -11 21 -24
54 -27 73 -4 19 -12 56 -18 82 -7 26 -9 50 -6 54 4 3 23 -9 43 -28 44 -39 69
-42 73 -10 3 16 8 22 19 18 8 -3 26 -6 39 -6 15 0 27 -7 32 -19 10 -27 109
-103 129 -99 9 2 20 16 24 32 9 31 -14 87 -54 133 -18 20 -18 23 -3 38 9 9 16
12 16 6 0 -6 24 -24 53 -41 78 -45 102 -38 50 15 -16 15 -29 31 -29 36 -1 5
-2 13 -3 19 -2 15 -64 80 -77 80 -6 0 -19 9 -29 20 -10 11 -26 20 -35 20 -20
0 -35 16 -44 48 -7 20 -4 22 28 22 20 0 58 -8 85 -19 28 -10 52 -16 55 -13 3
3 -12 24 -33 47 -21 23 -44 52 -50 64 -12 21 -10 21 25 18 21 -2 40 -10 42
-18 8 -26 116 -130 150 -145 26 -10 66 -13 170 -9 76 3 130 2 122 -1 -8 -4
-22 -15 -31 -26 -13 -17 -21 -18 -65 -11 -31 6 -58 6 -72 0 -21 -9 -20 -11 15
-29 23 -13 47 -18 64 -14 16 3 31 1 35 -5 3 -6 21 -8 44 -4 29 5 39 3 43 -9 5
-13 12 -14 33 -6 21 9 29 7 40 -7 7 -10 14 -21 14 -25 0 -5 16 -8 36 -8 22 0
33 -4 29 -10 -9 -15 12 -38 56 -61 58 -29 100 -24 67 9 -9 9 -6 12 15 12 19 0
25 -4 21 -15 -6 -14 24 -49 59 -70 24 -15 34 -65 13 -65 -9 0 -16 -3 -16 -6 0
-7 27 -34 34 -34 7 0 54 -39 75 -62 8 -10 25 -18 37 -18 23 0 64 -42 64 -66 0
-8 7 -14 15 -14 8 0 15 -4 15 -9 0 -14 -28 -33 -42 -28 -21 7 -50 -13 -44 -30
6 -13 -5 -15 -79 -11 -47 2 -91 10 -97 16 -14 14 -54 16 -63 3 -3 -5 0 -13 6
-17 7 -4 2 -15 -15 -31 l-26 -24 -50 18 c-62 22 -77 12 -63 -44 9 -36 11 -38
48 -36 21 2 47 10 57 20 10 9 28 17 38 18 11 1 28 9 38 19 17 15 20 15 32 1 7
-8 21 -15 31 -15 11 0 19 -7 19 -15 0 -8 -4 -15 -9 -15 -5 0 -12 -8 -15 -18
-4 -11 -17 -24 -29 -31 -39 -21 -50 -47 -36 -86 7 -19 10 -38 6 -41 -10 -11
-57 14 -57 30 0 7 -13 19 -28 25 -34 14 -86 5 -78 -15 3 -7 -2 -18 -10 -24
-21 -18 -17 -37 9 -44 l22 -6 -25 -13 c-45 -24 -61 -27 -59 -14 4 30 -3 54
-22 76 -19 23 -20 23 -40 5 -20 -18 -21 -17 -50 14 -35 37 -36 37 -60 16 -13
-12 -16 -25 -12 -45 4 -24 3 -28 -10 -23 -8 3 -18 17 -22 31 -5 20 -9 22 -20
13 -25 -21 -57 -8 -70 29 -8 25 -13 30 -18 19 -5 -15 -10 -15 -57 -1 -46 13
-53 13 -63 0 -10 -13 -20 -13 -70 -3 -32 6 -55 14 -52 18 3 3 -9 11 -26 17
-25 8 -34 8 -40 0 -4 -7 -18 -9 -35 -5 -16 3 -45 8 -65 11 -20 2 -40 5 -45 6
-5 1 -15 1 -22 0 -11 -1 -11 -3 0 -14 17 -18 69 -34 133 -43 28 -3 57 -12 65
-19 28 -23 224 -84 304 -95 97 -13 131 -27 132 -59 3 -57 -108 -60 -432 -10
-33 5 -75 9 -92 9 -16 0 -43 6 -59 14 -67 33 -105 38 -400 51 -62 3 -114 1
-117 -3 -3 -5 0 -9 7 -10 309 -41 429 -64 622 -121 108 -32 302 -79 380 -91
89 -14 114 -26 108 -51 -5 -17 -15 -19 -88 -19 -46 0 -90 -3 -99 -6 -19 -7
-20 -33 -5 -68 13 -27 39 -38 134 -56 157 -28 231 -44 238 -50 14 -12 -5 -40
-32 -46 -30 -8 -61 -32 -61 -48 0 -15 -99 -13 -127 2 -25 14 -179 16 -187 3
-3 -5 -22 -12 -41 -15 -19 -4 -35 -10 -35 -15 0 -14 54 -33 104 -38 27 -2 59
-9 70 -15 14 -8 87 -11 217 -9 l196 2 15 -23 c23 -35 6 -61 -33 -53 -24 6 -29
3 -29 -13 0 -11 -7 -25 -15 -32 -28 -23 -11 -105 20 -94 10 4 15 -4 17 -33 2
-30 7 -39 25 -41 28 -4 74 37 72 63 -6 61 2 105 23 124 33 32 52 10 45 -51 -6
-43 -4 -48 14 -48 16 0 19 -4 14 -21 -7 -20 -5 -21 24 -16 24 5 33 2 41 -13
11 -21 40 -28 40 -10 0 6 7 10 15 10 11 0 15 -11 15 -42 0 -23 3 -38 7 -35 3
4 15 -1 26 -10 10 -10 26 -18 34 -18 15 0 45 -74 40 -98 -1 -6 28 -12 70 -14
54 -2 75 0 86 12 20 19 25 19 72 -5 25 -13 50 -19 67 -16 17 3 33 0 42 -9 8
-8 21 -15 29 -15 8 0 20 -6 26 -14 9 -11 6 -15 -14 -20 -14 -4 -33 -3 -43 2
-9 5 -62 14 -117 21 -55 6 -120 15 -145 18 -25 4 -48 6 -52 5 -5 -1 -55 -2
-113 -3 -58 0 -134 -5 -168 -11 -78 -13 -160 -26 -212 -33 -22 -4 -49 -10 -60
-14 -124 -50 -166 -52 -287 -17 -56 16 -136 29 -229 36 -152 12 -163 16 -229
70 -23 19 -72 54 -109 78 -77 50 -345 183 -414 206 -26 9 -58 22 -70 30 -12 8
-39 17 -60 20 -50 8 -70 19 -91 51 -20 30 -14 45 20 45 31 0 30 13 -5 75 -28
49 -30 50 -82 55 -43 4 -56 9 -64 27 -19 44 -69 43 -160 -2 -41 -20 -85 -35
-107 -35 -29 0 -46 -9 -82 -41 -79 -72 -80 -72 -266 -63 -198 11 -646 12 -655
2 -4 -4 -12 -46 -17 -95 -5 -48 -14 -94 -20 -101 -8 -9 -6 -17 6 -30 9 -10 16
-28 16 -40 0 -14 11 -27 29 -36 55 -29 64 -68 72 -316 14 -381 39 -561 96
-674 36 -70 116 -169 174 -213 111 -84 143 -103 231 -137 212 -81 437 -118
713 -120 233 -1 294 10 425 73 77 37 86 39 98 24 7 -10 15 -13 21 -7 21 23
104 147 150 224 28 47 79 128 112 180 34 52 74 123 90 158 21 46 36 65 56 72
16 6 36 15 45 20 26 15 54 12 97 -9 61 -31 72 -56 106 -231 18 -91 23 -110 90
-320 62 -196 82 -265 100 -355 9 -44 20 -93 25 -110 5 -16 6 -42 3 -57 -9 -46
4 -72 67 -133 65 -64 89 -78 111 -64 10 6 10 9 2 9 -7 0 -13 9 -13 20 0 17
-25 73 -69 150 -26 47 -34 68 -48 119 -24 89 -44 174 -47 196 -1 12 -6 26 -10
33 -4 7 -4 12 1 12 4 -1 24 -21 43 -46 134 -174 348 -280 712 -354 100 -20
119 -21 320 -12 209 9 243 15 341 57 24 10 22 -6 -13 -79 -17 -34 -35 -91 -40
-127 -6 -35 -15 -91 -20 -124 -5 -33 -9 -94 -8 -135 1 -89 -23 -180 -60 -230
-30 -39 -49 -84 -62 -145 -22 -102 -61 -157 -135 -190 -50 -21 -53 -26 -60
-66 -4 -24 -11 -49 -16 -55 -9 -11 -69 -189 -69 -205 0 -6 -9 -29 -20 -51 -11
-23 -20 -47 -20 -54 0 -7 -13 -41 -29 -76 -15 -35 -40 -94 -56 -133 -15 -38
-34 -81 -42 -95 -8 -14 -25 -48 -38 -77 -13 -28 -29 -54 -35 -58 -5 -3 -28
-39 -50 -78 -22 -40 -52 -85 -67 -101 -24 -26 -39 -65 -63 -166 -23 -95 -32
-127 -49 -169 -11 -25 -22 -54 -25 -64 -3 -10 -10 -15 -16 -12 -5 3 -10 0 -10
-7 0 -8 -32 -47 -70 -88 -39 -41 -75 -87 -82 -102 -7 -15 -21 -29 -31 -32 -11
-2 -16 -9 -13 -14 7 -12 -20 -36 -31 -29 -5 3 -17 -6 -27 -21 -10 -15 -29 -35
-42 -45 -24 -18 -24 -18 -24 9 0 20 -4 25 -16 20 -9 -3 -17 -6 -19 -6 -2 0 -1
-9 2 -20 8 -29 -4 -25 -38 13 -21 23 -28 38 -23 52 3 11 6 30 6 43 0 12 4 22
10 22 5 0 52 42 103 92 51 51 99 98 105 104 64 62 190 220 190 238 0 14 -37
13 -59 -1 -14 -9 -37 -16 -49 -14 -22 2 -23 0 -17 -27 l6 -29 -53 5 c-29 2
-57 8 -63 13 -5 5 -19 9 -32 9 -40 0 -25 27 22 40 50 14 49 13 34 41 -8 16
-17 19 -39 14 -25 -6 -70 10 -70 25 0 3 13 11 29 18 26 11 36 27 46 71 3 10
-5 12 -33 7 -20 -3 -44 -6 -53 -6 -9 0 -19 -14 -25 -36 -8 -32 -13 -37 -41
-39 -18 -2 -39 -10 -48 -19 -9 -9 -21 -16 -26 -16 -5 0 -9 -7 -9 -15 0 -8 -17
-19 -40 -26 -22 -7 -40 -18 -40 -26 0 -7 -7 -13 -15 -13 -8 0 -15 4 -15 8 0
13 -56 72 -68 72 -7 0 -12 7 -12 15 0 8 -4 15 -9 15 -6 0 -11 19 -13 43 -2 33
-7 42 -20 41 -11 -1 -18 5 -18 17 0 29 -18 32 -33 4 -12 -24 -15 -25 -26 -11
-8 9 -22 16 -32 16 -10 0 -24 10 -30 22 -7 13 -16 26 -22 29 -13 9 -47 -1 -47
-13 0 -6 -9 -8 -19 -5 -27 7 -48 -8 -34 -25 6 -7 18 -33 26 -58 14 -43 29 -58
95 -91 17 -10 22 -21 22 -53 0 -23 -6 -48 -13 -57 -26 -34 -77 -33 -77 1 0 10
-9 22 -20 25 -28 9 -28 61 0 70 28 9 25 24 -7 36 -20 7 -29 7 -31 -1 -2 -6
-14 -23 -26 -37 -18 -21 -34 -27 -78 -30 -33 -2 -59 0 -63 7 -3 5 -14 10 -24
10 -10 0 -23 10 -30 22 -7 14 -9 16 -6 5 3 -10 5 -27 5 -38 0 -13 7 -19 23
-19 12 0 32 -7 44 -15 14 -10 24 -12 28 -5 14 22 27 8 24 -28 -3 -49 -1 -62
10 -62 4 0 14 27 20 61 11 53 15 60 34 57 23 -3 47 -21 47 -35 0 -4 -9 -14
-20 -21 -11 -7 -20 -18 -20 -26 0 -22 -35 -46 -66 -46 -17 0 -54 11 -82 25
-56 27 -122 34 -122 12 0 -7 -9 -18 -20 -25 -11 -7 -20 -19 -20 -27 0 -12 -3
-12 -20 2 -13 11 -16 21 -10 28 14 16 4 23 -25 17 -17 -3 -25 -11 -25 -26 0
-24 -40 -66 -63 -66 -18 0 -33 18 -39 45 -2 11 -10 19 -18 17 -7 -2 -26 10
-43 25 -18 17 -31 23 -34 17 -4 -13 -57 8 -68 27 -4 5 -11 7 -16 3 -18 -11
-48 40 -49 83 0 33 -3 41 -15 37 -10 -4 -13 -14 -9 -30 4 -17 -2 -31 -28 -58
-19 -19 -46 -40 -61 -45 -24 -9 -27 -8 -27 9 0 10 4 22 10 25 5 3 10 13 10 21
0 25 -48 15 -85 -17 -34 -31 -36 -31 -50 -13 -13 18 -14 16 -15 -17 0 -41 -20
-53 -70 -42 -33 6 -43 -7 -31 -39 7 -19 3 -30 -21 -58 l-30 -35 5 48 c2 26 1
50 -4 53 -9 5 -13 -8 -10 -38 1 -9 -7 -23 -18 -30 -12 -7 -21 -22 -21 -33 0
-11 -4 -26 -9 -33 -13 -21 -23 15 -11 38 15 27 12 52 -9 79 l-18 23 -1 -43
c-1 -24 -6 -57 -10 -74 -8 -29 -11 -30 -88 -40 -72 -9 -79 -12 -88 -37 -7 -20
-5 -33 8 -52 12 -18 13 -26 4 -26 -7 0 1 -12 17 -28 17 -15 37 -40 45 -55 8
-16 27 -35 42 -43 19 -10 28 -22 28 -39 0 -13 11 -32 25 -43 30 -24 31 -32 4
-32 -27 0 -19 -24 9 -28 12 -2 22 -7 22 -12 0 -5 14 -24 30 -42 17 -18 33 -43
36 -55 4 -13 13 -23 21 -23 12 0 14 -7 8 -32 -8 -37 -8 -40 1 -86 4 -18 2 -38
-5 -46 -8 -10 -6 -17 9 -31 11 -10 20 -24 20 -31 0 -7 8 -15 18 -17 13 -4 11
-5 -5 -6 -24 -1 -31 -15 -13 -26 17 -11 11 -37 -10 -42 -11 -3 -20 -12 -20
-19 0 -12 124 -14 791 -14 l790 0 92 97 c157 166 518 518 540 526 39 15 44 4
40 -83 -2 -45 -8 -90 -13 -100 -6 -11 -9 -23 -8 -27 4 -16 -13 -83 -22 -83 -4
0 -22 -33 -39 -73 -21 -53 -28 -81 -23 -100 4 -15 9 -28 12 -29 8 -4 60 39 60
49 0 5 11 20 25 33 14 13 25 34 25 47 0 13 15 52 34 86 38 69 66 164 66 225 0
23 5 44 10 47 6 3 10 15 10 25 0 10 12 28 28 41 15 12 22 24 16 26 -8 3 -10
25 -7 67 4 41 2 66 -6 70 -6 4 -11 16 -11 27 0 13 -10 24 -30 30 -70 25 -6 71
65 47 22 -7 52 -24 67 -38 34 -33 84 -126 113 -214 22 -67 42 -115 67 -160 49
-90 64 -115 87 -141 14 -17 41 -54 60 -83 l34 -53 -7 -100 c-5 -80 -3 -106 9
-129 l16 -30 144 1 c80 1 145 4 145 8 0 4 -12 14 -27 22 -32 17 -73 14 -73 -6
0 -18 -49 -15 -72 4 -22 18 -10 34 44 62 46 23 98 26 158 7 54 -17 129 -63
137 -83 3 -8 11 -15 19 -15 18 0 94 48 94 59 0 5 13 11 29 14 16 4 44 19 63
35 18 16 45 32 60 35 14 4 49 25 76 47 28 21 63 42 79 46 44 11 109 42 123 59
7 8 30 25 51 37 22 12 39 24 39 28 0 3 37 35 81 71 45 35 96 79 113 97 18 17
39 32 48 32 9 0 21 7 28 15 7 8 24 15 39 15 14 0 37 9 51 20 14 11 32 20 40
20 8 0 30 9 48 20 18 11 43 20 56 20 29 0 174 48 201 66 11 8 29 14 40 14 11
0 38 9 60 21 21 12 63 28 94 35 30 8 68 21 85 28 17 8 42 17 56 19 14 3 58 15
99 26 97 27 401 46 465 29 21 -5 37 -3 52 7 19 12 25 13 36 1 8 -7 41 -16 73
-20 33 -4 70 -10 83 -13 l22 -5 0 2692 0 2693 -42 -8 c-24 -4 -68 -10 -98 -14
-30 -4 -67 -15 -82 -24 -18 -12 -41 -17 -70 -15 -36 3 -44 7 -46 26 -2 15 5
33 19 48 21 23 21 24 3 24 -10 0 -46 -5 -79 -10 -65 -11 -91 -1 -65 24 9 9 47
17 100 21 47 3 135 12 195 19 61 7 113 11 118 9 20 -11 47 10 47 37 0 26 -3
29 -27 26 -16 -2 -57 -7 -93 -10 -36 -4 -90 -11 -120 -16 -30 -5 -90 -12 -133
-15 -44 -3 -91 -11 -105 -16 -25 -10 -87 -55 -217 -158 -55 -45 -93 -57 -215
-71 -47 -5 -141 -16 -210 -25 -69 -8 -150 -17 -180 -20 -30 -3 -84 -10 -120
-15 -116 -16 -222 -29 -370 -46 -198 -21 -253 -32 -265 -48 -5 -8 -16 -23 -23
-33 -11 -16 -12 -15 -7 8 4 20 0 28 -14 32 -26 6 -185 -22 -189 -34 -2 -5 -15
-23 -30 -40 -22 -27 -26 -29 -35 -14 -6 12 -2 27 16 53 24 35 31 67 43 201 2
29 1 57 -3 64 -11 17 -45 147 -47 180 0 15 -4 27 -8 27 -5 0 -8 14 -8 30 0 31
17 39 37 19 15 -15 33 -3 33 23 0 25 -40 108 -52 108 -4 0 -8 6 -8 13 0 20
-33 47 -57 47 -25 0 -37 35 -17 51 16 13 19 49 4 49 -13 0 -13 57 1 62 11 4
20 120 10 136 -10 15 -49 24 -56 12 -11 -18 -26 -11 -23 13 2 17 11 23 35 25
54 5 70 72 19 72 -16 0 -29 11 -42 35 -10 19 -25 35 -32 35 -26 0 -6 22 33 36
23 8 57 11 82 7 36 -5 43 -3 43 11 0 9 -8 19 -17 22 -10 4 -34 13 -53 22 -19
9 -42 17 -50 17 -9 0 -17 14 -21 38 -6 40 4 47 43 26 30 -16 34 -2 8 26 -24
25 -64 33 -75 15 -4 -6 -11 -7 -17 -4 -6 4 -20 7 -32 8 -14 1 -20 7 -18 18 1
9 -7 22 -18 28 -13 7 -20 7 -20 0 0 -5 7 -10 15 -10 8 0 15 -4 15 -10 0 -14
-28 -12 -74 4 l-40 14 32 16 c17 9 41 16 54 16 23 0 57 16 48 22 -64 41 -126
68 -157 68 -16 0 -46 9 -68 20 -22 11 -46 20 -54 20 -11 0 -12 3 -4 11 8 8 17
8 31 0 29 -16 57 -14 110 8 73 30 86 34 95 33 15 -4 6 47 -10 57 -13 7 -15 14
-7 32 8 17 7 30 -3 51 -8 15 -12 32 -8 38 3 5 -1 20 -9 32 -13 21 -47 137 -49
166 0 6 -4 12 -9 12 -5 0 -33 18 -62 40 -29 22 -57 40 -63 40 -5 0 -16 15 -24
33 -12 28 -20 33 -63 39 -27 4 -53 11 -58 16 -15 15 1 34 23 27 10 -4 19 -2
19 3 0 13 -93 36 -235 59 -16 3 -42 18 -57 34 -26 30 -27 30 -30 7 -2 -15 -11
-24 -25 -26 -27 -4 -30 15 -6 33 16 12 14 14 -20 20 -46 9 -95 0 -116 -20 -30
-30 -64 -55 -73 -55 -13 0 -9 12 8 24 20 15 8 46 -17 46 -14 0 -19 -7 -19 -30
0 -16 -4 -30 -8 -30 -12 0 -42 34 -42 48 0 6 -12 25 -26 42 -15 17 -24 33 -21
37 8 8 -21 63 -33 63 -6 0 -15 -11 -22 -24 -6 -14 -16 -27 -23 -30 -17 -6 -28
39 -15 63 12 23 -3 31 -42 24 -31 -6 -42 16 -27 53 5 15 8 29 5 31 -2 2 -27
-5 -55 -17 l-51 -22 -29 31 c-16 17 -34 31 -40 31 -6 0 -18 14 -26 30 -14 27
-18 29 -37 19 -16 -9 -19 -8 -13 2 8 12 0 11 -66 -3 -9 -2 -13 4 -11 15 2 9
-5 20 -15 24 -10 3 -30 17 -44 30 -14 13 -28 21 -31 18z m843 -476 c-13 -11
-26 -17 -29 -15 -3 3 6 14 19 25 13 11 26 17 29 14 3 -2 -6 -13 -19 -24z
m-1041 -234 c-7 -8 -20 -15 -29 -15 -12 1 -11 5 8 21 26 22 41 18 21 -6z
m1143 -79 c15 -4 27 -13 27 -22 0 -17 38 -53 57 -54 6 0 22 -17 34 -37 13 -21
42 -58 66 -83 23 -25 43 -51 43 -58 0 -20 -33 1 -63 41 -39 51 -129 139 -176
170 -38 26 -57 61 -28 53 6 -3 24 -7 40 -10z m297 -30 c0 -8 -16 -16 -42 -20
-24 -4 -59 -9 -78 -12 l-35 -5 24 20 c12 12 27 18 32 15 5 -3 17 0 26 5 27 15
73 14 73 -3z m-357 -38 c35 -35 84 -112 92 -147 3 -17 11 -33 16 -36 5 -4 9
-15 9 -25 0 -29 27 -37 110 -34 50 2 79 -1 90 -10 8 -7 41 -19 73 -26 31 -7
57 -18 57 -23 0 -5 -10 -6 -22 -2 -36 12 -225 14 -268 3 -31 -8 -40 -15 -40
-32 0 -11 -3 -37 -6 -56 -6 -35 -5 -36 53 -62 32 -14 94 -35 139 -46 44 -12
109 -37 143 -57 35 -19 65 -35 68 -35 11 0 128 -118 163 -165 21 -27 48 -61
60 -75 27 -30 46 -72 61 -137 11 -47 16 -76 43 -258 8 -49 17 -100 21 -112 6
-20 4 -23 -19 -23 -14 0 -25 3 -24 8 2 4 -5 27 -14 52 -9 25 -19 57 -22 73 -7
30 -30 36 -44 11 -11 -20 -23 -5 -41 51 -20 63 -35 95 -44 95 -5 0 -7 -10 -5
-22 2 -11 -2 -23 -9 -25 -9 -3 -10 4 -3 26 6 23 5 33 -5 39 -8 4 -20 21 -27
38 -7 17 -34 54 -59 82 -39 43 -49 49 -59 37 -16 -19 15 -71 52 -88 16 -6 28
-19 28 -27 0 -8 9 -21 20 -28 11 -7 20 -23 20 -37 0 -27 -17 -34 -26 -10 -4 8
-11 15 -16 15 -6 0 -19 11 -30 25 -21 26 -58 34 -58 12 0 -7 5 -18 12 -25 7
-7 8 -12 2 -12 -5 0 -15 9 -22 20 -9 15 -19 19 -36 14 -20 -5 -25 -2 -28 18
-2 12 -11 24 -20 26 -26 5 -23 -33 3 -51 17 -12 19 -21 14 -51 -4 -19 -13 -40
-21 -47 -16 -13 -15 -14 -19 28 -1 17 -10 45 -18 63 -10 20 -14 45 -11 69 4
28 0 42 -15 60 -12 13 -21 27 -21 30 0 8 -71 44 -132 68 -27 10 -48 21 -48 26
0 4 -13 7 -29 7 -16 0 -43 12 -63 28 -19 15 -51 33 -71 41 -20 8 -36 20 -35
25 1 6 -4 22 -11 34 -7 13 -10 26 -7 29 7 7 -40 37 -75 48 -13 4 -43 16 -65
26 -23 10 -60 21 -83 25 -27 4 -41 12 -41 22 0 34 272 -17 362 -68 22 -12 34
5 16 23 -25 22 -57 37 -98 43 -22 4 -43 11 -46 15 -6 10 25 13 104 10 57 -2
66 8 27 29 -14 8 -24 19 -21 25 2 6 -2 19 -10 29 -24 34 12 51 42 21 25 -25
42 -17 53 22 8 29 7 42 -4 60 -9 13 -21 23 -28 23 -6 0 -3 7 7 15 18 14 19 19
6 67 -14 57 -57 155 -71 164 -9 5 -13 54 -5 54 3 0 16 -10 29 -22z m-1323 -13
c-7 -8 -17 -15 -23 -15 -6 0 -2 7 9 15 25 19 30 19 14 0z m-372 -87 c2 -86
-16 -73 -25 17 -5 44 -3 55 9 55 11 0 15 -16 16 -72z m288 8 c-28 -48 -33 -71
-13 -60 10 6 10 4 0 -7 -7 -7 -13 -24 -13 -38 0 -15 -4 -21 -9 -15 -14 14 5
123 25 145 31 34 37 20 10 -25z m1975 11 c24 -17 33 -29 31 -45 -2 -14 2 -22
11 -22 28 0 76 -78 50 -81 -147 -15 -194 -5 -214 47 -8 23 -13 25 -49 19 -35
-6 -40 -5 -40 13 0 11 8 30 19 43 18 22 19 22 36 6 17 -17 18 -17 32 3 30 43
76 49 124 17z m-1941 -22 c0 -8 -4 -15 -10 -15 -5 0 -7 7 -4 15 4 8 8 15 10
15 2 0 4 -7 4 -15z m181 -182 c5 -65 6 -132 3 -149 -3 -17 0 -50 6 -74 10 -36
9 -45 -4 -58 -20 -21 -30 -10 -46 53 -7 28 -16 54 -19 60 -3 5 -5 19 -5 30 -1
28 -20 31 -24 3 -6 -34 -23 -50 -50 -45 -15 3 -31 -2 -42 -13 -10 -10 -27 -21
-37 -24 -17 -5 -18 -2 -15 29 3 29 8 35 22 30 10 -3 22 0 27 7 11 18 31 133
32 186 1 23 4 42 9 42 4 0 5 -32 4 -71 -5 -92 12 -111 28 -33 12 55 13 57 25
34 12 -23 13 -22 23 26 31 142 51 132 63 -33z m-217 35 c-3 -18 -10 -53 -17
-78 -10 -41 -12 -43 -18 -20 -13 45 -10 98 7 114 24 25 34 19 28 -16z m-829
-49 c-4 -5 -14 -9 -23 -9 -10 0 -23 -9 -29 -20 -7 -10 -22 -24 -34 -30 -19
-11 -20 -10 -14 11 10 31 30 49 63 58 30 9 45 5 37 -10z m128 -44 c8 -20 -5
-26 -26 -10 -14 10 -15 14 -5 18 21 9 26 8 31 -8z m-841 -57 c-9 -35 -32 -50
-32 -20 0 10 5 34 11 52 10 26 13 29 21 16 5 -8 5 -30 0 -48z m3108 -8 c0 -5
-2 -10 -4 -10 -3 0 -8 5 -11 10 -3 6 -1 10 4 10 6 0 11 -4 11 -10z m417 -46
c-3 -3 -12 -4 -19 -1 -8 3 -5 6 6 6 11 1 17 -2 13 -5z m-1130 -101 c-3 -10 -5
-2 -5 17 0 19 2 27 5 18 2 -10 2 -26 0 -35z m1259 -18 c10 -8 30 -15 43 -15
23 0 23 -1 6 -26 l-17 -26 31 7 c36 8 52 0 44 -20 -3 -10 -19 -15 -47 -15 -77
0 -113 21 -60 34 25 7 26 8 9 26 -10 11 -26 20 -37 20 -10 0 -18 7 -18 15 0
19 21 19 46 0z m-56 -5 c0 -5 -4 -10 -10 -10 -5 0 -10 5 -10 10 0 6 5 10 10
10 6 0 10 -4 10 -10z m-1196 -103 c-18 -31 -39 -47 -64 -47 -15 0 -34 -8 -41
-19 -13 -16 -19 -17 -59 -6 -45 12 -45 12 -15 19 17 4 62 22 100 40 68 33 92
37 79 13z m281 -17 c3 -5 1 -10 -4 -10 -6 0 -11 5 -11 10 0 6 2 10 4 10 3 0 8
-4 11 -10z m68 -27 c-7 -2 -19 -2 -25 0 -7 3 -2 5 12 5 14 0 19 -2 13 -5z
m122 -27 c30 -14 55 -30 55 -35 0 -14 0 -14 -46 4 -64 26 -84 38 -78 47 7 11
6 11 69 -16z m-514 -57 c-3 -4 -16 -10 -28 -14 -20 -5 -23 -3 -23 22 0 20 7
31 23 38 19 9 23 7 28 -15 3 -14 3 -28 0 -31z m147 -74 c17 -14 32 -25 36 -25
3 0 26 -13 52 -30 32 -20 55 -28 70 -24 16 4 25 0 33 -14 18 -34 -22 -33 -91
1 -35 17 -65 34 -68 37 -3 3 -26 21 -52 40 -27 18 -48 35 -48 37 0 12 44 -1
68 -22z m-981 -30 c8 -9 12 -19 9 -23 -8 -8 -38 10 -44 26 -5 17 17 15 35 -3z
m1303 -115 c0 -19 -36 -47 -48 -36 -9 9 20 56 35 56 7 0 13 -9 13 -20z m55
-30 c3 -5 -1 -10 -9 -10 -9 0 -16 5 -16 10 0 6 4 10 9 10 6 0 13 -4 16 -10z
m130 -46 c8 -4 22 -19 31 -35 8 -16 21 -29 28 -29 18 0 30 -64 16 -90 -13 -23
-50 -27 -50 -5 0 13 -4 14 -20 5 -18 -10 -20 -7 -21 22 -1 18 -1 49 0 69 2 20
-2 40 -8 44 -27 16 -8 31 24 19z m290 -84 c4 -6 -7 -10 -27 -10 -25 0 -29 3
-18 10 19 13 37 13 45 0z m-135 -117 c48 6 63 -3 55 -35 -4 -15 -2 -29 4 -33
6 -3 9 -11 6 -16 -4 -5 5 -14 19 -21 14 -6 26 -17 26 -25 0 -7 6 -16 14 -19 8
-3 16 -14 19 -25 3 -11 14 -23 25 -26 11 -2 26 -16 33 -30 7 -13 21 -29 30
-34 14 -7 16 -5 11 13 l-5 22 31 -23 c18 -12 35 -33 38 -45 3 -13 17 -29 30
-37 14 -7 37 -37 51 -66 14 -29 33 -55 42 -58 30 -10 48 -48 43 -88 -5 -40
-18 -44 -36 -12 -37 66 -57 95 -66 95 -16 0 -12 -16 16 -73 14 -28 32 -74 40
-102 8 -27 18 -57 21 -65 3 -8 5 -30 4 -48 -2 -23 2 -34 16 -39 39 -14 77
-109 66 -165 -3 -14 -1 -34 5 -44 7 -12 7 -25 1 -36 -7 -13 -5 -29 7 -55 10
-19 19 -45 20 -57 7 -69 24 -150 33 -159 14 -14 14 -57 0 -57 -8 0 -8 -4 0
-14 9 -11 9 -20 2 -34 -6 -11 -11 -48 -12 -83 -1 -35 -5 -75 -9 -89 -4 -14 -4
-34 0 -45 4 -10 1 -30 -6 -43 -17 -34 -7 -57 33 -76 64 -30 30 -25 -82 13
-126 42 -175 68 -175 93 0 9 -4 19 -9 22 -5 3 -14 26 -20 51 -6 25 -16 45 -21
45 -6 0 -10 4 -10 9 0 5 -27 50 -59 99 -49 71 -71 96 -119 125 -33 20 -64 37
-68 37 -4 0 -25 12 -45 26 -20 14 -63 32 -96 40 -87 22 -107 32 -120 59 -11
24 -9 26 23 40 32 13 34 17 34 59 0 37 5 49 23 61 13 8 30 27 37 41 17 30 86
64 132 64 30 0 35 4 49 45 18 49 11 62 -22 45 -11 -6 -27 -9 -36 -6 -21 9 2
36 31 36 11 0 34 11 50 25 16 14 31 25 33 25 2 0 8 -12 13 -26 15 -38 35 -24
35 23 0 55 7 60 41 26 36 -35 56 -71 58 -102 0 -13 6 -26 13 -28 16 -6 20 34
10 80 -7 25 -6 41 2 51 28 33 2 226 -30 226 -5 0 -9 6 -9 13 0 21 -61 108 -71
101 -5 -3 -9 5 -9 18 0 15 -14 33 -41 53 -23 17 -48 44 -56 60 -9 17 -26 40
-39 52 -13 12 -24 27 -24 32 0 6 -12 14 -26 17 -20 5 -32 0 -60 -27 -19 -19
-43 -42 -54 -51 -25 -22 -70 -24 -70 -3 0 15 -11 19 -38 16 -10 -2 -11 2 -3
17 7 13 18 18 34 15 17 -3 38 5 67 26 43 31 70 39 70 21 0 -5 -4 -10 -10 -10
-5 0 -10 -4 -10 -10 0 -5 4 -10 9 -10 15 0 20 27 12 58 -5 16 -6 42 -3 58 4
21 7 24 10 10 3 -15 11 -17 42 -13z m-287 -80 c-7 -2 -21 -2 -30 0 -10 3 -4 5
12 5 17 0 24 -2 18 -5z m-193 -43 c0 -5 -4 -10 -10 -10 -5 0 -10 5 -10 10 0 6
5 10 10 10 6 0 10 -4 10 -10z m115 -36 c6 0 20 -2 33 -2 46 -4 9 -22 -43 -22
-30 0 -57 5 -60 10 -3 6 -1 10 4 10 6 0 11 7 11 15 0 13 4 14 23 3 12 -7 27
-13 32 -14z m560 16 c3 -6 -1 -7 -9 -4 -18 7 -21 14 -7 14 6 0 13 -4 16 -10z
m-667 -48 c3 -9 -2 -13 -14 -10 -9 1 -19 9 -22 16 -3 9 2 13 14 10 9 -1 19 -9
22 -16z m122 -36 c0 -3 -4 -8 -10 -11 -5 -3 -10 -1 -10 4 0 6 5 11 10 11 6 0
10 -2 10 -4z m-545 -212 c14 -9 25 -24 25 -33 0 -9 14 -25 30 -34 17 -10 30
-22 30 -28 0 -17 -33 -9 -82 21 -26 17 -52 30 -56 30 -17 1 -54 38 -48 49 11
16 73 13 101 -5z m976 -5 c11 -11 18 -23 15 -26 -7 -8 -56 25 -56 37 0 16 19
11 41 -11z m181 -63 c1 -10 -3 -21 -9 -23 -9 -3 -13 6 -13 28 0 34 15 31 22
-5z m-1032 -58 c0 -6 -7 -7 -16 -4 -9 3 -18 6 -20 6 -3 0 -3 4 1 10 7 11 35 2
35 -12z m-156 -104 c9 -3 14 -10 11 -15 -7 -10 -35 0 -35 12 0 11 3 11 24 3z
m1897 -42 c-13 -24 -40 -46 -47 -39 -5 5 42 57 52 57 2 0 0 -8 -5 -18z m-1363
-84 c27 -27 13 -37 -45 -31 -63 6 -107 22 -63 23 14 0 32 5 40 10 21 13 54 12
68 -2z m112 -80 c14 -1 46 2 73 6 30 5 47 5 47 -2 0 -17 -58 -35 -94 -28 -21
4 -37 2 -41 -5 -8 -12 -72 -4 -91 12 -6 5 -20 7 -30 3 -18 -5 -17 -4 1 11 15
12 31 15 65 10 25 -3 56 -6 70 -7z m-307 -218 c27 0 11 -15 -25 -24 -28 -6
-44 6 -33 25 4 6 14 8 22 5 8 -3 24 -6 36 -6z m-2180 -7 c-13 -2 -35 -2 -50 0
-16 2 -5 4 22 4 28 0 40 -2 28 -4z m132 -13 c3 -6 -5 -10 -19 -10 -14 0 -28 5
-31 10 -3 6 5 10 19 10 14 0 28 -4 31 -10z m105 0 c0 -5 -4 -10 -9 -10 -6 0
-13 5 -16 10 -3 6 1 10 9 10 9 0 16 -4 16 -10z m94 -16 c17 -17 21 -34 8 -34
-5 0 -18 11 -30 25 -16 18 -18 25 -8 25 8 0 22 -7 30 -16z m-1120 -52 c64 -49
76 -67 54 -88 -14 -14 -23 -15 -69 -5 -62 13 -69 21 -69 77 0 67 14 70 84 16z
m537 -57 c23 -4 39 -3 43 4 19 30 369 3 511 -40 39 -12 89 -26 113 -32 23 -6
42 -14 42 -19 0 -4 7 -8 15 -8 11 0 13 -8 8 -30 -8 -42 27 -80 73 -80 18 0 35
-4 38 -9 7 -10 -49 -33 -58 -24 -14 14 -37 -21 -31 -49 10 -42 -14 -45 -102
-13 -66 24 -79 26 -97 15 -20 -13 -93 -26 -181 -33 -73 -6 -190 -29 -215 -42
-15 -8 -26 -24 -28 -40 -2 -17 -12 -29 -30 -36 -15 -6 -35 -18 -45 -26 -9 -9
-27 -21 -39 -27 -27 -14 -67 -83 -68 -118 0 -15 -4 -30 -10 -33 -5 -3 -10 -20
-10 -38 1 -18 -2 -48 -6 -69 -5 -30 -3 -37 14 -42 11 -4 22 -15 25 -26 5 -20
18 -18 107 9 52 16 60 14 67 -19 6 -31 33 -42 33 -14 0 26 62 104 108 135 76
52 109 60 211 58 85 -3 94 -5 108 -26 8 -13 25 -23 37 -23 34 0 96 -20 96 -31
0 -7 -20 -8 -55 -4 -90 12 -101 -17 -48 -130 12 -27 23 -62 23 -76 0 -29 19
-39 77 -39 32 0 51 -14 34 -24 -15 -10 -207 16 -269 36 -33 10 -57 -1 -84 -37
-11 -13 -1 -115 12 -130 6 -7 8 -19 5 -26 -6 -17 37 -39 76 -39 36 0 68 -13
98 -39 13 -12 30 -21 38 -21 7 0 13 -7 13 -15 0 -8 -6 -15 -14 -15 -15 0 -30
-29 -21 -38 13 -13 105 -5 117 9 7 9 45 21 83 28 39 7 80 19 92 27 12 8 29 14
38 14 28 0 124 68 145 102 26 42 26 43 -11 66 l-31 19 36 22 c20 13 36 28 36
36 0 20 24 35 48 28 29 -7 30 -54 1 -94 -11 -16 -24 -56 -29 -88 -5 -33 -22
-89 -39 -125 -112 -233 -452 -295 -1005 -182 -243 50 -342 95 -457 209 -84 83
-136 228 -160 444 -19 169 26 500 85 629 72 157 223 218 437 179z m909 -215
c0 -12 37 -13 44 -1 12 18 112 -13 176 -56 135 -89 177 -132 164 -167 -8 -22
-53 -32 -75 -17 -10 6 -24 11 -30 11 -7 0 -22 11 -35 25 -14 16 -34 25 -52 25
-43 0 -97 50 -89 82 5 19 1 27 -21 40 -15 9 -43 19 -62 23 -60 11 -70 16 -70
31 0 8 10 14 25 14 14 0 25 -4 25 -10z m2075 -271 c39 -6 122 -23 185 -37 104
-24 117 -30 152 -65 20 -21 42 -36 48 -32 6 3 8 11 5 16 -13 19 54 8 111 -20
55 -27 110 -71 87 -71 -5 0 -17 -28 -27 -62 -10 -35 -29 -98 -42 -141 -13 -43
-24 -85 -24 -93 0 -8 -4 -22 -9 -32 -24 -46 -51 -123 -50 -144 1 -13 1 -75 -1
-138 -1 -63 -3 -140 -4 -170 -1 -50 1 -55 22 -58 30 -5 89 -62 97 -95 6 -21 1
-35 -21 -63 -38 -48 -42 -54 -56 -89 -9 -24 -12 -26 -15 -12 -3 10 -3 24 0 30
2 7 4 14 4 17 0 3 5 15 11 27 16 30 2 36 -35 13 -28 -16 -31 -24 -37 -89 -9
-87 -23 -100 -131 -126 -154 -36 -502 -5 -695 63 -127 45 -249 112 -315 174
-62 58 -124 143 -112 154 7 7 60 -21 76 -40 8 -9 17 -16 22 -16 5 0 38 -13 72
-30 76 -36 107 -39 107 -10 0 25 19 26 26 3 17 -53 25 -66 36 -55 17 17 18 42
2 42 -17 0 -17 0 1 41 8 19 14 27 15 19 0 -12 15 -15 77 -13 106 2 148 21 157
69 7 36 8 36 46 30 38 -6 39 -5 31 17 -15 39 1 51 68 49 33 0 69 -6 81 -12 17
-9 20 -8 20 9 0 23 28 54 41 45 13 -8 98 18 111 33 6 7 11 33 12 58 0 25 4 45
9 45 4 0 7 20 7 44 0 28 7 52 19 67 16 20 18 35 14 94 -3 39 -12 79 -19 90 -8
11 -14 32 -14 47 0 50 -20 78 -55 78 -17 0 -49 9 -71 19 -22 11 -54 23 -70 27
-16 4 -42 19 -57 34 -16 16 -42 30 -58 34 -16 3 -60 20 -99 38 -67 31 -69 33
-72 73 -2 25 -8 39 -15 38 -9 -2 -11 6 -6 27 4 21 2 30 -8 30 -23 0 7 21 43
31 38 9 202 3 303 -12z m-368 -35 c-3 -3 -12 -4 -19 -1 -8 3 -5 6 6 6 11 1 17
-2 13 -5z m-2467 -108 c0 -2 -7 -9 -15 -16 -12 -10 -15 -10 -15 4 0 9 7 16 15
16 8 0 15 -2 15 -4z m-99 -76 c-23 -20 -51 -27 -51 -12 0 9 39 29 60 30 10 1
7 -5 -9 -18z m3927 -89 c-6 -22 -15 -42 -22 -44 -25 -9 -87 6 -96 23 -13 23 2
35 60 48 71 16 69 16 58 -27z m-1427 -222 c18 -9 19 -12 6 -27 -13 -15 -12
-26 9 -92 27 -84 28 -94 14 -85 -5 3 -10 -1 -10 -9 0 -13 -13 -16 -64 -16 -46
0 -69 -5 -81 -16 -20 -20 -50 -10 -40 14 3 9 8 31 10 48 7 53 24 84 50 94 16
6 23 14 19 25 -4 10 0 15 12 15 16 0 16 2 -4 16 -31 21 -28 32 11 37 17 2 36
5 40 5 5 1 17 -3 28 -9z m69 -254 c0 -8 -7 -15 -15 -15 -16 0 -20 12 -8 23 11
12 23 8 23 -8z m170 -4 c0 -6 -4 -13 -10 -16 -5 -3 -10 1 -10 9 0 9 5 16 10
16 6 0 10 -4 10 -9z m-2094 -3005 c13 -11 16 -18 8 -26 -7 -7 -17 -5 -32 8
-12 11 -22 22 -22 26 0 11 26 6 46 -8z m1904 -155 c0 -10 -25 -21 -48 -21 -15
1 -14 3 2 15 22 17 46 20 46 6z m-522 -434 c2 -10 -3 -17 -12 -17 -10 0 -16 9
-16 21 0 24 23 21 28 -4z"/>
<path d="M6330 7230 c20 -13 43 -13 35 0 -3 6 -16 10 -28 10 -18 0 -19 -2 -7
-10z"/>
<path d="M6640 7086 c0 -8 5 -18 10 -21 6 -4 9 -14 8 -23 -2 -9 5 -18 16 -20
15 -3 18 0 13 19 -4 13 -7 32 -7 42 0 10 -8 17 -20 17 -11 0 -20 -6 -20 -14z"/>
<path d="M5026 7561 c-3 -5 1 -14 9 -21 13 -10 15 -9 15 9 0 21 -14 28 -24 12z"/>
<path d="M6405 6467 c-11 -8 -14 -16 -8 -20 6 -4 18 2 28 13 21 23 8 27 -20 7z"/>
<path d="M6805 6270 c3 -5 8 -10 11 -10 2 0 4 5 4 10 0 6 -5 10 -11 10 -5 0
-7 -4 -4 -10z"/>
<path d="M6860 6160 c0 -13 28 -25 38 -16 3 4 0 11 -8 16 -20 13 -30 12 -30 0z"/>
<path d="M6635 5700 c3 -5 17 -10 31 -10 13 0 24 5 24 10 0 6 -14 10 -31 10
-17 0 -28 -4 -24 -10z"/>
<path d="M3885 4360 c-3 -5 1 -10 10 -10 9 0 13 5 10 10 -3 6 -8 10 -10 10 -2
0 -7 -4 -10 -10z"/>
<path d="M6893 4363 c-14 -31 -9 -68 10 -71 14 -3 17 4 17 37 0 44 -14 62 -27
34z"/>
<path d="M6800 4330 c0 -17 7 -20 40 -20 41 0 57 21 24 34 -34 13 -64 7 -64
-14z"/>
<path d="M6799 4285 c-1 -8 -2 -22 -3 -32 0 -9 5 -18 12 -20 8 -3 12 7 12 31
0 34 -19 53 -21 21z"/>
<path d="M6442 8623 c-42 -28 -57 -51 -24 -38 33 13 115 18 108 6 -4 -6 -1
-11 6 -12 45 -2 104 -12 119 -20 24 -12 29 -11 29 5 0 21 -40 46 -73 46 -16 0
-40 9 -54 20 -34 27 -61 25 -111 -7z"/>
<path d="M6212 8573 c-23 -19 -42 -41 -42 -49 0 -8 -11 -19 -24 -26 -26 -11
-41 -34 -28 -42 10 -6 37 16 45 37 3 9 14 17 24 17 34 0 83 38 83 64 0 38 -12
38 -58 -1z"/>
<path d="M6060 8550 c-30 -26 -22 -34 10 -10 14 10 22 21 19 24 -3 4 -16 -3
-29 -14z"/>
<path d="M6711 8544 c0 -11 3 -14 6 -6 3 7 2 16 -1 19 -3 4 -6 -2 -5 -13z"/>
<path d="M6482 8443 c19 -5 34 -45 24 -61 -3 -5 7 -9 22 -10 15 0 51 -4 81 -8
43 -5 53 -4 49 7 -3 8 -21 17 -42 20 -32 5 -75 29 -52 29 4 0 1 7 -8 15 -8 9
-31 15 -53 14 -21 -1 -30 -3 -21 -6z"/>
<path d="M6106 8421 c-4 -7 -5 -15 -2 -18 9 -9 19 4 14 18 -4 11 -6 11 -12 0z"/>
<path d="M6305 8420 c-8 -12 20 -24 35 -15 5 3 10 10 10 16 0 12 -37 12 -45
-1z"/>
<path d="M3840 8401 c-73 -13 -96 -47 -64 -96 l16 -25 43 35 c29 24 44 46 47
65 3 17 2 29 -1 29 -3 -1 -22 -5 -41 -8z"/>
<path d="M6696 8351 c-7 -10 33 -23 47 -14 10 6 -11 23 -30 23 -6 0 -14 -4
-17 -9z"/>
<path d="M3703 8270 c-13 -5 -23 -16 -23 -25 0 -18 12 -19 28 -3 8 8 15 8 26
-1 19 -16 32 4 16 24 -14 17 -16 17 -47 5z"/>
<path d="M3332 8185 c-17 -37 -15 -41 8 -12 22 27 25 37 12 37 -5 0 -14 -11
-20 -25z"/>
<path d="M3667 8182 c-9 -2 -26 -21 -37 -43 -18 -34 -18 -39 -4 -39 9 0 18 9
21 20 3 11 11 20 18 20 18 0 35 24 27 36 -4 5 -15 8 -25 6z"/>
<path d="M3870 8125 l-23 -25 21 0 c12 0 22 -4 22 -10 0 -14 43 -13 58 2 18
18 15 51 -4 44 -8 -3 -24 -2 -33 4 -14 7 -24 4 -41 -15z"/>
<path d="M3300 8121 c0 -12 5 -21 10 -21 6 0 10 6 10 14 0 8 -4 18 -10 21 -5
3 -10 -3 -10 -14z"/>
<path d="M4275 8128 c-26 -14 -65 -49 -65 -59 0 -3 8 -9 18 -11 20 -6 52 13
52 29 0 6 7 16 15 23 30 25 16 38 -20 18z"/>
<path d="M3789 8044 c-6 -16 -13 -55 -15 -87 l-4 -57 39 20 c44 22 75 61 85
105 6 28 5 30 -26 31 -18 0 -41 4 -50 8 -14 6 -20 2 -29 -20z"/>
<path d="M4595 8030 c-3 -5 -2 -10 4 -10 5 0 13 5 16 10 3 6 2 10 -4 10 -5 0
-13 -4 -16 -10z"/>
<path d="M7015 8000 c-3 -6 1 -13 9 -16 21 -8 66 3 66 16 0 13 -67 13 -75 0z"/>
<path d="M4483 7976 c-31 -27 -27 -44 7 -26 18 10 24 9 31 -1 6 -10 9 -3 9 19
0 38 -10 40 -47 8z"/>
<path d="M7140 7971 c0 -12 6 -21 16 -21 9 0 14 7 12 17 -5 25 -28 28 -28 4z"/>
<path d="M3716 7936 c-16 -34 -22 -76 -10 -76 14 0 43 48 44 72 0 40 -16 42
-34 4z"/>
<path d="M7120 7900 c-13 -11 -21 -22 -19 -24 2 -2 29 -15 59 -29 30 -14 68
-39 84 -56 37 -38 53 -39 67 -4 12 32 -4 49 -58 59 -18 3 -33 10 -33 15 0 5
-6 9 -13 9 -18 0 -49 34 -40 43 16 17 -27 5 -47 -13z"/>
<path d="M7003 7885 c0 -18 28 -16 35 3 2 7 -5 12 -15 12 -11 0 -20 -7 -20
-15z"/>
<path d="M4050 7824 c-19 -13 -40 -28 -47 -34 -8 -6 -13 -6 -15 2 -4 12 -87
-20 -88 -34 0 -11 62 -10 79 1 9 6 22 6 33 0 12 -6 25 -6 39 1 13 8 24 8 32 2
7 -6 38 -13 70 -17 49 -6 57 -5 57 9 0 25 -77 96 -103 95 -12 0 -38 -11 -57
-25z"/>
<path d="M3778 7749 c-13 -14 -14 -19 -5 -19 8 0 22 9 32 20 14 15 15 20 4 19
-8 0 -22 -9 -31 -20z"/>
<path d="M4336 7633 c51 -116 64 -151 64 -175 0 -16 5 -28 10 -28 6 0 10 9 10
20 0 10 5 30 11 44 10 22 7 32 -21 78 -60 95 -106 133 -74 61z"/>
<path d="M7065 7650 c4 -6 11 -8 16 -5 14 9 11 15 -7 15 -8 0 -12 -5 -9 -10z"/>
<path d="M7102 7648 c5 -15 28 -18 29 -3 0 6 -7 12 -17 13 -10 3 -15 -1 -12
-10z"/>
<path d="M7386 7614 c-10 -27 -7 -44 9 -44 10 0 15 10 15 30 0 32 -14 40 -24
14z"/>
<path d="M3495 7579 c-4 -6 -4 -13 -1 -16 8 -8 36 5 36 17 0 13 -27 13 -35 -1z"/>
<path d="M7048 7543 c6 -2 18 -2 25 0 6 3 1 5 -13 5 -14 0 -19 -2 -12 -5z"/>
<path d="M7135 7540 c-3 -5 -1 -10 4 -10 6 0 11 5 11 10 0 6 -2 10 -4 10 -3 0
-8 -4 -11 -10z"/>
<path d="M7200 7520 c0 -5 11 -10 25 -10 14 0 25 5 25 10 0 6 -11 10 -25 10
-14 0 -25 -4 -25 -10z"/>
<path d="M4451 7324 c0 -11 3 -14 6 -6 3 7 2 16 -1 19 -3 4 -6 -2 -5 -13z"/>
<path d="M5166 7061 c-3 -5 3 -11 13 -14 12 -3 22 1 25 9 6 16 -29 20 -38 5z"/>
<path d="M5316 7055 c-3 -9 2 -20 13 -27 10 -6 16 -19 14 -28 -6 -23 38 -57
91 -71 22 -6 49 -17 60 -25 11 -8 28 -14 38 -14 10 0 18 -4 18 -10 0 -5 -9
-10 -19 -10 -26 0 -16 -36 16 -58 14 -9 34 -27 46 -39 11 -13 27 -23 34 -23 7
0 13 -5 13 -12 0 -6 7 -19 16 -29 13 -14 21 -16 41 -8 21 8 28 6 40 -11 8 -11
25 -20 39 -20 13 0 24 -6 24 -13 0 -15 44 -39 54 -30 10 11 -15 43 -33 43 -10
0 -21 9 -24 20 -3 11 -12 20 -21 20 -9 0 -16 5 -16 10 0 6 4 10 9 10 5 0 13 9
16 21 9 28 -18 56 -66 69 -21 6 -44 18 -51 28 -7 10 -32 24 -55 31 -24 8 -50
25 -58 38 -9 14 -25 23 -40 23 -14 0 -25 4 -25 9 0 5 -14 23 -31 40 -22 23
-40 31 -65 31 -27 0 -34 4 -34 19 0 10 -7 22 -16 25 -21 8 -21 8 -28 -9z"/>
<path d="M5538 7013 c7 -3 16 -2 19 1 4 3 -2 6 -13 5 -11 0 -14 -3 -6 -6z"/>
<path d="M4235 6929 c-10 -15 -4 -18 27 -12 15 3 25 9 22 14 -7 12 -41 11 -49
-2z"/>
<path d="M4130 6852 c0 -9 36 -29 60 -34 34 -7 22 15 -15 28 -48 16 -45 16
-45 6z"/>
<path d="M5250 6852 c0 -5 13 -20 29 -34 16 -15 31 -32 33 -39 2 -7 10 -9 16
-5 8 5 3 19 -20 47 -29 36 -58 51 -58 31z"/>
<path d="M5086 6733 c-3 -4 -6 -11 -6 -18 0 -16 77 -101 85 -93 4 4 -5 29 -20
57 -27 48 -46 66 -59 54z"/>
<path d="M5860 6706 c0 -11 30 -39 36 -34 2 3 -5 13 -16 23 -11 10 -20 15 -20
11z"/>
<path d="M5334 6639 c-9 -16 12 -33 31 -25 14 5 15 9 5 21 -15 18 -26 19 -36
4z"/>
<path d="M6030 6621 c-5 -11 -19 -23 -30 -26 -11 -4 -18 -11 -15 -16 4 -5 14
-5 25 1 10 5 32 10 49 10 32 0 45 18 25 37 -18 19 -42 16 -54 -6z"/>
<path d="M5769 6581 c20 -13 3 -32 -26 -29 -14 2 -28 -3 -30 -9 -7 -20 64 -13
83 8 14 16 14 18 -5 28 -24 13 -42 14 -22 2z"/>
<path d="M5340 6431 c0 -12 28 -22 35 -12 3 5 -2 12 -11 15 -21 8 -24 8 -24
-3z"/>
<path d="M5730 6368 c-24 -9 -26 -31 -4 -49 12 -10 22 -10 48 -1 18 7 43 12
57 12 27 1 66 26 55 37 -9 9 -131 10 -156 1z"/>
<path d="M4665 6350 c17 -4 57 -8 90 -8 47 0 54 2 30 8 -16 4 -57 8 -90 8 -47
0 -54 -2 -30 -8z"/>
<path d="M9589 6335 c-3 -2 -38 -9 -79 -15 -41 -6 -76 -13 -79 -15 -3 -3 2
-12 10 -20 11 -11 31 -13 99 -7 72 6 85 10 88 26 5 22 -25 46 -39 31z"/>
<path d="M9405 6259 c-4 -6 -3 -15 3 -21 6 -6 11 -4 15 6 7 18 -9 31 -18 15z"/>
<path d="M4313 6183 c15 -2 39 -2 55 0 15 2 2 4 -28 4 -30 0 -43 -2 -27 -4z"/>
<path d="M4460 5991 c-21 -6 -13 -9 40 -19 36 -7 87 -17 113 -22 90 -18 106
-10 30 14 -85 28 -148 37 -183 27z"/>
<path d="M4720 5943 c0 -10 154 -66 240 -88 53 -14 71 -15 102 -5 20 7 44 10
52 7 9 -4 16 -2 16 3 0 8 -45 13 -76 9 -4 0 -10 4 -14 11 -4 6 -24 12 -46 14
-71 6 -189 29 -216 43 -30 14 -58 17 -58 6z"/>
<path d="M4748 5703 c7 -3 16 -2 19 1 4 3 -2 6 -13 5 -11 0 -14 -3 -6 -6z"/>
<path d="M2590 5639 c0 -5 5 -9 10 -9 6 0 10 -9 10 -20 0 -11 5 -20 10 -20 6
0 10 9 10 20 0 11 0 23 0 28 0 4 -9 8 -20 8 -11 1 -20 -3 -20 -7z"/>
<path d="M4248 5623 c7 -3 16 -2 19 1 4 3 -2 6 -13 5 -11 0 -14 -3 -6 -6z"/>
<path d="M4270 5551 c0 -22 25 -45 40 -36 14 9 13 -8 -2 -23 -6 -6 -8 -15 -3
-19 4 -5 10 -3 12 4 3 9 9 10 22 1 10 -6 26 -8 35 -5 21 8 33 40 18 45 -7 2
-18 9 -25 16 -37 38 -97 48 -97 17z"/>
<path d="M6081 5184 c0 -11 3 -14 6 -6 3 7 2 16 -1 19 -3 4 -6 -2 -5 -13z"/>
<path d="M2708 5143 c7 -3 16 -2 19 1 4 3 -2 6 -13 5 -11 0 -14 -3 -6 -6z"/>
<path d="M2079 4460 c-9 -5 -21 -22 -27 -37 -5 -16 -20 -55 -32 -88 -12 -33
-26 -69 -30 -80 -25 -60 -32 -102 -26 -154 4 -31 9 -83 12 -115 4 -67 2 -61
30 -70 19 -6 22 -2 28 46 4 29 15 71 25 93 32 74 53 140 60 190 6 44 25 91 42
105 13 11 29 50 29 70 0 15 -11 25 -35 36 -40 16 -54 17 -76 4z"/>
<path d="M2365 3938 c-33 -17 -64 -37 -69 -45 -4 -9 -24 -32 -42 -51 -38 -40
-44 -83 -18 -117 12 -16 16 -17 23 -6 5 8 23 14 40 15 17 0 31 4 31 9 0 4 6 7
14 7 36 0 122 149 110 194 -8 33 -15 32 -89 -6z"/>
<path d="M4305 3529 c-16 -10 -35 -19 -41 -19 -6 0 -26 -14 -45 -31 -38 -34
-130 -69 -160 -62 -11 3 -31 -5 -48 -19 -16 -14 -47 -28 -69 -32 -29 -4 -43
-12 -47 -26 -4 -12 -25 -39 -46 -60 -22 -22 -37 -44 -34 -50 3 -6 -7 -24 -24
-41 -17 -17 -31 -36 -32 -42 0 -7 -27 -34 -61 -62 -33 -27 -65 -60 -71 -72 -6
-13 -14 -23 -19 -23 -4 0 -8 -5 -8 -11 0 -6 -10 -25 -23 -42 -26 -36 -43 -100
-53 -199 -4 -43 -3 -68 4 -68 11 0 9 -66 -3 -117 -6 -27 -4 -33 9 -33 29 0 53
36 80 118 24 71 45 110 142 264 13 20 39 48 58 63 18 14 54 46 79 70 25 24 65
56 89 71 24 15 45 30 48 33 3 4 27 25 54 49 35 30 55 40 70 36 18 -4 23 2 34
48 17 71 58 135 112 175 81 58 103 79 96 91 -11 18 -57 13 -91 -9z"/>
<path d="M2430 3449 c0 -17 27 -45 35 -37 3 3 -3 16 -14 29 -16 19 -20 20 -21
8z"/>
<path d="M4268 3168 l-26 -20 31 -61 c23 -43 44 -68 76 -89 25 -15 50 -28 57
-28 6 0 17 -6 23 -14 6 -7 29 -16 50 -20 30 -4 57 -22 111 -71 39 -36 81 -70
93 -74 12 -5 60 -12 107 -16 46 -3 92 -12 101 -19 12 -8 39 -9 90 -4 41 4 136
11 211 14 98 5 141 11 149 20 6 8 19 14 28 14 10 0 38 7 64 16 50 17 77 46 96
104 6 20 21 44 32 54 20 17 20 19 5 34 -13 14 -45 18 -159 22 -78 3 -160 1
-182 -3 -83 -17 -88 -16 -97 28 -8 37 -12 42 -59 58 -28 10 -81 21 -120 24
-58 5 -69 3 -69 -9 0 -9 -9 -18 -20 -21 -18 -5 -20 -14 -20 -82 0 -73 -1 -76
-22 -73 -15 2 -34 23 -58 61 -41 69 -55 77 -175 107 -49 12 -117 33 -149 46
-73 29 -132 30 -168 2z"/>
<path d="M4415 2653 c-73 -4 -127 -23 -120 -41 6 -17 -22 -52 -42 -52 -18 0
-17 19 2 26 20 8 19 30 -1 38 -9 3 -25 -5 -40 -21 -14 -15 -22 -20 -19 -11 7
18 -9 31 -45 36 -14 1 -37 7 -53 13 -19 8 -31 8 -40 1 -9 -8 -36 -8 -91 0 -57
7 -89 7 -115 -1 -35 -11 -91 -52 -91 -67 0 -5 -11 -19 -24 -33 -15 -16 -26
-41 -28 -66 l-3 -40 50 -1 c34 0 66 8 99 24 34 16 78 27 142 33 51 4 104 11
116 14 32 8 78 -11 78 -31 0 -16 1 -16 19 0 18 16 21 16 44 1 28 -18 39 -46
26 -66 -11 -18 8 -39 28 -32 9 4 21 0 27 -9 6 -8 41 -29 79 -46 37 -18 67 -37
67 -43 0 -6 6 -9 14 -6 20 8 84 -13 90 -30 3 -8 -1 -16 -9 -19 -8 -4 -15 -12
-15 -20 0 -21 -10 -20 -135 20 -61 19 -149 12 -184 -16 -13 -10 -35 -18 -49
-18 -31 0 -100 -32 -130 -60 -11 -11 -26 -20 -31 -20 -5 0 -13 -9 -16 -21 -6
-18 11 -50 38 -70 5 -3 13 -37 20 -75 6 -38 12 -71 14 -73 1 -2 9 2 18 9 10 8
15 9 15 1 0 -6 9 -11 20 -11 22 0 26 -10 9 -27 -8 -8 -5 -13 11 -18 15 -5 25
-2 31 6 4 7 12 10 16 5 4 -5 2 -11 -4 -13 -22 -8 -14 -27 20 -52 18 -13 40
-41 49 -62 13 -31 22 -39 53 -45 30 -5 40 -3 47 10 12 21 38 21 38 -2 0 -25
28 -62 48 -62 9 0 30 -7 46 -15 32 -17 56 -19 56 -6 0 15 85 23 114 10 21 -10
33 -9 63 5 32 14 47 15 93 6 30 -6 66 -19 80 -30 14 -11 36 -25 50 -31 53 -23
190 -117 190 -130 0 -5 7 -9 15 -9 19 0 19 0 -1 66 -8 30 -14 60 -11 67 2 6
-6 31 -19 54 -13 24 -19 45 -14 48 6 4 10 17 10 31 0 14 6 24 15 24 20 0 189
-171 230 -233 17 -27 71 -52 80 -37 3 5 1 11 -5 15 -18 11 -11 42 14 58 26 17
39 82 27 139 -6 29 -11 33 -38 33 -44 0 -60 17 -45 49 13 28 -5 50 -50 61 -16
4 -28 14 -28 21 0 8 -11 19 -24 25 -19 9 -29 8 -46 -4 -22 -16 -55 -13 -44 4
5 10 -2 13 -49 23 -15 4 -50 28 -77 54 -49 47 -60 67 -40 74 5 2 11 16 12 31
3 32 30 43 68 28 18 -7 20 -10 8 -10 -24 -1 -23 -21 0 -21 10 0 23 -5 29 -11
6 -6 53 -12 104 -14 l93 -3 36 39 c19 22 43 39 52 39 23 0 34 24 42 92 6 44 3
64 -10 90 -18 36 -92 107 -111 108 -6 0 -13 4 -15 8 -1 5 -32 22 -68 39 -36
17 -72 38 -79 47 -7 9 -31 20 -52 26 -21 6 -51 23 -66 39 -16 16 -45 31 -68
35 -22 4 -56 16 -77 26 -20 10 -60 23 -89 30 -51 13 -105 7 -195 -21 -50 -15
-62 -10 -118 47 -24 25 -60 32 -131 27z m113 -84 c-5 -14 -115 -75 -123 -67
-15 14 20 57 54 66 50 14 73 14 69 1z m-155 -20 c-15 -15 -82 -29 -88 -19 -8
14 27 29 65 30 24 0 31 -3 23 -11z m260 -323 c-10 -13 -21 -22 -26 -19 -11 7
12 43 29 43 13 0 12 -4 -3 -24z"/>
<path d="M4880 1467 c0 -8 11 -19 25 -25 28 -13 33 -1 9 22 -19 20 -34 21 -34
3z"/>
<path d="M3910 1365 c0 -8 -6 -15 -14 -15 -14 0 -42 -27 -35 -34 2 -3 16 -7
30 -11 25 -6 26 -5 26 34 0 23 -1 41 -3 41 -2 0 -4 -7 -4 -15z"/>
<path d="M5520 1364 c0 -8 11 -14 25 -14 14 0 25 4 25 9 0 5 -11 11 -25 13
-17 4 -25 1 -25 -8z"/>
<path d="M4840 1350 c0 -5 5 -10 10 -10 6 0 10 5 10 10 0 6 -4 10 -10 10 -5 0
-10 -4 -10 -10z"/>
<path d="M3626 1245 c-4 -10 1 -15 14 -15 13 0 18 5 14 15 -4 8 -10 15 -14 15
-4 0 -10 -7 -14 -15z"/>
<path d="M3613 1212 c-10 -6 -9 -16 4 -45 16 -35 33 -49 33 -27 0 6 7 10 15
10 21 0 20 56 -1 64 -21 8 -36 7 -51 -2z"/>
<path d="M4393 1155 c-21 -23 -16 -25 42 -19 45 6 56 4 61 -10 9 -24 64 -22
64 2 0 22 -46 48 -52 30 -3 -8 -13 -8 -38 0 -43 15 -62 15 -77 -3z"/>
<path d="M3677 1050 c3 -11 7 -20 9 -20 2 0 4 9 4 20 0 11 -4 20 -9 20 -5 0
-7 -9 -4 -20z"/>
<path d="M3575 900 c3 -5 13 -10 21 -10 8 0 14 5 14 10 0 6 -9 10 -21 10 -11
0 -17 -4 -14 -10z"/>
<path d="M8452 330 c-16 -25 -16 -72 1 -89 10 -10 7 -16 -12 -30 l-24 -19 32
-7 c37 -8 37 -29 0 -33 -23 -3 -25 -7 -23 -45 1 -30 8 -45 23 -55 27 -18 27
-35 1 -27 -14 5 -20 2 -20 -9 0 -14 16 -16 107 -16 58 0 104 2 102 4 -3 3 -18
12 -34 21 -29 15 -29 15 -7 21 24 7 29 32 10 53 -11 11 -9 13 10 8 22 -5 27 5
23 41 -1 6 3 12 9 12 5 0 10 -4 10 -10 0 -5 9 -10 19 -10 11 0 22 -4 25 -9 8
-13 -4 -42 -15 -35 -11 6 -12 -26 -1 -42 4 -6 15 -13 25 -17 9 -3 17 -13 17
-22 0 -23 145 -22 154 1 4 11 10 13 19 6 21 -16 67 -21 67 -6 0 14 -25 22 -67
22 -13 1 -23 -3 -23 -8 0 -4 -9 -6 -20 -3 -11 3 -17 10 -14 15 3 5 -1 17 -10
27 -9 10 -16 25 -14 32 2 8 -7 15 -20 17 -19 3 -23 8 -18 25 3 12 1 29 -4 37
-7 11 -10 8 -10 -14 0 -24 -3 -28 -22 -22 -13 3 -29 6 -37 6 -11 0 -11 3 -1
15 11 13 8 15 -18 15 -17 0 -33 4 -36 8 -3 4 -27 14 -53 21 -45 13 -51 18 -83
77 -36 68 -48 76 -68 44z m18 -241 c0 -5 -4 -9 -10 -9 -5 0 -10 7 -10 16 0 8
5 12 10 9 6 -3 10 -10 10 -16z m330 -54 c0 -8 -7 -15 -15 -15 -13 0 -14 3 -3
15 16 18 18 18 18 0z"/>
<path d="M6316 323 c-11 -12 -6 -30 9 -30 8 0 15 6 15 13 0 15 -15 26 -24 17z"/>
<path d="M9510 215 c-7 -8 -29 -15 -49 -15 -47 0 -91 -42 -74 -70 8 -13 9 -20
1 -28 -8 -8 -7 -13 6 -18 10 -4 22 -2 27 3 11 11 99 -15 99 -29 0 -13 -42 -20
-53 -9 -20 20 -31 12 -12 -9 10 -11 24 -20 32 -20 7 0 13 -4 13 -10 0 -15 76
-12 88 3 12 14 10 101 -3 175 -7 37 -11 42 -35 42 -15 0 -33 -7 -40 -15z"/>
<path d="M8820 170 c0 -11 7 -20 15 -20 8 0 15 -4 15 -10 0 -5 11 -10 25 -10
18 0 25 5 25 20 0 17 -5 19 -25 14 -19 -5 -25 -2 -25 10 0 9 -7 16 -15 16 -8
0 -15 -9 -15 -20z"/>
<path d="M6470 144 c0 -45 39 -129 53 -115 7 7 5 25 -6 53 -8 24 -18 55 -21
71 -9 39 -26 33 -26 -9z"/>
<path d="M7921 34 c0 -11 3 -14 6 -6 3 7 2 16 -1 19 -3 4 -6 -2 -5 -13z"/>
<path d="M9430 15 c-10 -12 -10 -15 4 -15 9 0 16 7 16 15 0 8 -2 15 -4 15 -2
0 -9 -7 -16 -15z"/>
<path d="M2375 10 c-3 -5 1 -10 9 -10 9 0 16 5 16 10 0 6 -4 10 -9 10 -6 0
-13 -4 -16 -10z"/>
<path d="M6550 10 c0 -5 5 -10 11 -10 5 0 7 5 4 10 -3 6 -8 10 -11 10 -2 0 -4
-4 -4 -10z"/>
<path d="M8688 3 c6 -2 18 -2 25 0 6 3 1 5 -13 5 -14 0 -19 -2 -12 -5z"/>
</g>
</svg>
